<svg width="75" height="46" viewBox="0 0 75 46" fill="none" xmlns="http://www.w3.org/2000/svg">
<path d="M26.584 6.764L23.178 11.184C24.4433 11.548 25.4487 12.1893 26.194 13.108C26.9567 14.0267 27.338 15.1187 27.338 16.384C27.338 18.256 26.7053 19.7207 25.44 20.778C24.2093 21.8353 22.6753 22.364 20.838 22.364C19.3993 22.364 18.1253 22.0347 17.016 21.376C15.9067 20.7 15.1007 19.7467 14.598 18.516L17.666 16.748C18.0993 18.152 19.1567 18.854 20.838 18.854C21.7567 18.854 22.4673 18.6373 22.97 18.204C23.49 17.7533 23.75 17.1467 23.75 16.384C23.75 15.6387 23.49 15.0407 22.97 14.59C22.4673 14.1393 21.7567 13.914 20.838 13.914H20.058L18.68 11.834L22.268 7.154H15.144V3.8H26.584V6.764ZM39.608 3.8L35.578 9.702C37.4673 9.754 39.0013 10.3693 40.18 11.548C41.3586 12.7267 41.948 14.2173 41.948 16.02C41.948 17.8747 41.3326 19.4 40.102 20.596C38.8713 21.7747 37.2853 22.364 35.344 22.364C33.4026 22.364 31.8166 21.7747 30.586 20.596C29.3726 19.4347 28.766 17.9093 28.766 16.02C28.766 14.6507 29.1213 13.4287 29.832 12.354L35.5 3.8H39.608ZM38.386 16.02C38.386 15.1533 38.1 14.4513 37.528 13.914C36.956 13.3593 36.228 13.082 35.344 13.082C34.46 13.082 33.732 13.3507 33.16 13.888C32.6053 14.4253 32.328 15.136 32.328 16.02C32.328 16.904 32.6053 17.6233 33.16 18.178C33.732 18.7153 34.46 18.984 35.344 18.984C36.228 18.984 36.956 18.7153 37.528 18.178C38.1 17.6233 38.386 16.904 38.386 16.02ZM50.7291 22.364C48.4584 22.364 46.6731 21.506 45.3731 19.79C44.0904 18.0393 43.4491 15.7427 43.4491 12.9C43.4491 10.0573 44.0904 7.76933 45.3731 6.036C46.6731 4.30267 48.4584 3.436 50.7291 3.436C53.0344 3.436 54.8197 4.30267 56.0851 6.036C57.3677 7.76933 58.0091 10.0573 58.0091 12.9C58.0091 15.7427 57.3677 18.0393 56.0851 19.79C54.8197 21.506 53.0344 22.364 50.7291 22.364ZM54.4471 12.9C54.4471 10.9587 54.1264 9.47667 53.4851 8.454C52.8611 7.43133 51.9424 6.92 50.7291 6.92C49.5157 6.92 48.5971 7.43133 47.9731 8.454C47.3491 9.47667 47.0371 10.9587 47.0371 12.9C47.0371 14.8413 47.3491 16.3233 47.9731 17.346C48.5971 18.3513 49.5157 18.854 50.7291 18.854C51.9424 18.854 52.8611 18.3427 53.4851 17.32C54.1264 16.2973 54.4471 14.824 54.4471 12.9ZM62.8471 9.52C61.5991 9.52 60.5591 9.104 59.7271 8.272C58.8951 7.40533 58.4791 6.39133 58.4791 5.23C58.4791 4.034 58.8951 3.02 59.7271 2.188C60.5591 1.356 61.5991 0.939998 62.8471 0.939998C64.0951 0.939998 65.1351 1.356 65.9671 2.188C66.7991 3.02 67.2151 4.034 67.2151 5.23C67.2151 6.426 66.7991 7.44 65.9671 8.272C65.1524 9.104 64.1124 9.52 62.8471 9.52ZM61.7291 6.348C62.0238 6.64267 62.3964 6.79 62.8471 6.79C63.2978 6.79 63.6618 6.64267 63.9391 6.348C64.2338 6.05333 64.3811 5.68067 64.3811 5.23C64.3811 4.77933 64.2338 4.40667 63.9391 4.112C63.6618 3.81733 63.2978 3.67 62.8471 3.67C62.3964 3.67 62.0238 3.81733 61.7291 4.112C61.4518 4.40667 61.3131 4.77933 61.3131 5.23C61.3131 5.68067 61.4518 6.05333 61.7291 6.348Z" fill="#787E88"/>
<path d="M5.28509 27.1553V26.7447C5.28509 26.3736 4.92535 26.1076 4.57607 26.2331C0.628765 27.651 -0.123317 30.0607 0.0152137 31.1414C0.0152137 38.3194 18.635 40.0293 28.458 39.9996C28.7618 39.9987 29 39.7514 29 39.4476V35.4087C29 35.1027 28.7385 34.8548 28.4325 34.854C2.89155 34.7858 2.1105 30.1069 5.07195 27.6C5.20328 27.4889 5.28509 27.3273 5.28509 27.1553Z" fill="#787E88"/>
<path d="M69.7149 27.1553V26.7447C69.7149 26.3736 70.0747 26.1076 70.4239 26.2331C74.3712 27.651 75.1233 30.0607 74.9848 31.1414C74.9848 38.3194 56.365 40.0293 46.542 39.9996C46.2382 39.9987 46 39.7514 46 39.4476V35.4087C46 35.1027 46.2615 34.8548 46.5675 34.854C72.1084 34.7858 72.8895 30.1069 69.928 27.6C69.7967 27.4889 69.7149 27.3273 69.7149 27.1553Z" fill="#787E88"/>
<path d="M38.8955 36.9994C39.7385 37.4002 39.7385 38.5998 38.8955 39.0006L29.8337 43.3092C29.0985 43.6587 28.25 43.1226 28.25 42.3086L28.25 33.6914C28.25 32.8774 29.0985 32.3413 29.8337 32.6908L38.8955 36.9994Z" fill="#787E88"/>
</svg>
