<svg width="36" height="36" viewBox="0 0 36 36" fill="none" xmlns="http://www.w3.org/2000/svg">
<path d="M2 15.8H34M32.2222 26.6V17.0223C32.2222 16.566 32.2224 16.3379 32.1944 16.1135C32.1696 15.9143 32.1281 15.7173 32.0708 15.5249C32.0064 15.3084 31.9146 15.1001 31.7315 14.6831L28.9826 8.4207C28.4391 7.18256 28.1674 6.56334 27.7378 6.1094C27.3582 5.70814 26.8925 5.40141 26.3762 5.21307C25.792 5 25.1223 5 23.7841 5H12.2153C10.8771 5 10.2083 5 9.62413 5.21307C9.10778 5.40141 8.64184 5.70814 8.26215 6.1094C7.8326 6.56334 7.56063 7.18256 7.01714 8.4207L4.26823 14.6831C4.08518 15.1001 3.99328 15.3084 3.92882 15.5249C3.87157 15.7173 3.83055 15.9143 3.80573 16.1135C3.77778 16.3379 3.77778 16.566 3.77778 17.0223V26.6M32.2222 26.6L3.77778 26.6M32.2222 26.6V28.4C32.2222 30.3882 30.6303 32 28.6667 32C26.703 32 25.1111 30.3882 25.1111 28.4V26.6M3.77778 26.6V28.4C3.77778 30.3882 5.36965 32 7.33333 32C9.29701 32 10.8889 30.3882 10.8889 28.4V26.6" stroke="#EF652F" stroke-width="1.5" stroke-linecap="round" stroke-linejoin="round"/>
</svg>
