<svg width="36" height="36" viewBox="0 0 36 36" fill="none" xmlns="http://www.w3.org/2000/svg">
<circle r="5.44681" transform="matrix(-1 0 0 1 18.3393 11.9785)" stroke="#EF652F" stroke-width="1.5"/>
<path d="M8.80762 25.5068C8.80762 24.3352 9.5441 23.2901 10.6474 22.8961V22.8961C15.6216 21.1196 21.0574 21.1196 26.0317 22.8961V22.8961C27.135 23.2902 27.8714 24.3352 27.8714 25.5068V28.0557C27.8714 29.2728 26.7935 30.2077 25.5886 30.0356L22.1579 29.5455C19.6252 29.1836 17.0539 29.1836 14.5211 29.5455L11.0905 30.0356C9.88559 30.2077 8.80762 29.2728 8.80762 28.0557V25.5068Z" stroke="#EF652F" stroke-width="1.5"/>
<path d="M26.5109 17.5764C28.8745 17.5764 30.7905 15.6603 30.7905 13.2967C30.7905 10.9331 28.8745 9.01709 26.5109 9.01709" stroke="#EF652F" stroke-width="1.5" stroke-linecap="round"/>
<path d="M31.1984 27.3398L31.6177 27.3997C32.8754 27.5794 34.0006 26.6035 34.0006 25.333V23.9256C34.0006 23.0051 33.422 22.1839 32.5551 21.8743C31.6904 21.5655 30.8079 21.325 29.9155 21.1528" stroke="#EF652F" stroke-width="1.5" stroke-linecap="round"/>
<path d="M9.48862 17.5759C7.12504 17.5759 5.20898 15.6598 5.20898 13.2962C5.20898 10.9327 7.12504 9.0166 9.48862 9.0166" stroke="#EF652F" stroke-width="1.5" stroke-linecap="round"/>
<path d="M4.80111 27.3393L4.38179 27.3992C3.12411 27.5789 1.99888 26.603 1.99888 25.3325V23.9251C1.99888 23.0046 2.57755 22.1834 3.44442 21.8738C4.30914 21.565 5.19162 21.3245 6.08398 21.1523" stroke="#EF652F" stroke-width="1.5" stroke-linecap="round"/>
</svg>
