<svg width="36" height="36" viewBox="0 0 36 36" fill="none" xmlns="http://www.w3.org/2000/svg">
<path d="M27.3492 13.7964L31.0094 15.7508L31.7756 16.1758C33.4081 17.0811 33.4081 19.4152 31.7756 20.3206L21.3792 26.0862C18.9681 27.4234 16.0319 27.4234 13.6208 26.0862L3.22437 20.3206C1.59187 19.4152 1.59188 17.0811 3.22437 16.1758L3.99063 15.7508L7.44798 13.7964M28.1452 22.4984L31.4722 24.1515C33.1881 25.0041 33.2432 27.4176 31.568 28.3466L21.3792 33.9971C18.9681 35.3343 16.0319 35.3343 13.6208 33.9971L3.58065 28.4291C1.87668 27.4841 1.97057 25.0172 3.7415 24.2028L7.44798 22.4984M21.3792 17.679L31.7756 11.9133C33.4081 11.008 33.4081 8.67389 31.7756 7.76853L21.3792 2.00288C18.9681 0.665708 16.0319 0.665706 13.6208 2.00288L3.22437 7.76853C1.59188 8.67388 1.59187 11.008 3.22437 11.9133L13.6208 17.679C16.0319 19.0162 18.9681 19.0162 21.3792 17.679Z" stroke="#EF652F" stroke-width="1.5"/>
</svg>
