<svg width="36" height="36" viewBox="0 0 36 36" fill="none" xmlns="http://www.w3.org/2000/svg">
<path d="M23.2496 33C23.2496 28.9959 18.4927 25.75 12.6248 25.75C6.75687 25.75 2 28.9959 2 33M26.4868 7.93608C27.1445 8.60931 27.6663 9.40854 28.0222 10.2882C28.3782 11.1678 28.5616 12.1104 28.5616 13.0624C28.5616 14.0145 28.3784 14.9573 28.0224 15.837C27.6664 16.7166 27.1445 17.5159 26.4868 18.1891M30.3327 4C31.4955 5.1901 32.4178 6.60296 33.047 8.15791C33.6763 9.71285 34 11.3793 34 13.0624C34 14.7454 33.6761 16.4121 33.0469 17.9671C32.4176 19.522 31.4955 20.935 30.3327 22.1251M12.6248 20.3125C8.71284 20.3125 5.54159 17.0666 5.54159 13.0625C5.54159 9.05844 8.71284 5.8125 12.6248 5.8125C16.5367 5.8125 19.708 9.05844 19.708 13.0625C19.708 17.0666 16.5367 20.3125 12.6248 20.3125Z" stroke="#EF652F" stroke-width="1.5" stroke-linecap="round" stroke-linejoin="round"/>
</svg>
