<svg width="36" height="36" viewBox="0 0 36 36" fill="none" xmlns="http://www.w3.org/2000/svg">
<path d="M2.23495 24.8328L2.23494 24.8328L2.23181 24.8338L1.28193 25.1224C1.0124 25.1674 0.875 25.4087 0.875 25.6521V28.5634C0.875 28.8615 1.12443 29.1251 1.42272 29.1251H33.5491C33.8495 29.1251 34.0898 28.8618 34.1241 28.5784L34.125 28.571V28.5634V25.6521C34.125 25.4162 33.9424 25.1992 33.7307 25.1263L33.7307 25.1262L33.7264 25.1249L32.7705 24.8345C32.3984 24.7054 32.1523 24.3742 32.1523 23.9635V22.1585C32.1523 16.2607 28.7732 10.8301 23.5435 8.39195C23.4038 8.32053 23.2555 8.30827 23.1211 8.35784C22.9871 8.4073 22.8803 8.51325 22.8123 8.65357C22.6742 8.9389 22.7707 9.28539 23.0728 9.40524C27.9004 11.6556 31.0287 16.6749 31.0287 22.1585V23.9635C31.0287 24.8308 31.5974 25.6383 32.4418 25.8881C32.4421 25.8882 32.4425 25.8883 32.4428 25.8884L33.0014 26.0641V28.0017H1.97043V26.0641L2.52806 25.8887C3.37675 25.6679 3.9431 24.857 3.9431 23.9635V22.1585C3.9431 16.6447 7.07269 11.6534 11.9304 9.40372L11.9305 9.40383L11.9352 9.40135C12.2184 9.2551 12.3261 8.95535 12.2208 8.66537L12.2215 8.66515L12.2158 8.65357C12.1477 8.51271 12.0415 8.40869 11.9108 8.35565C11.78 8.30257 11.6342 8.30446 11.4946 8.35856L11.4945 8.35832L11.4871 8.36171C6.22775 10.7994 2.84767 16.2308 2.84767 22.1585V23.9635C2.84767 24.3809 2.59626 24.7333 2.23495 24.8328Z" fill="#EF652F" stroke="#EF652F" stroke-width="0.25"/>
<path d="M22.7144 12.2594C22.7144 12.5575 22.9638 12.8211 23.2621 12.8211C23.5604 12.8211 23.8098 12.5575 23.8098 12.2594V7.89238C23.8098 6.77912 22.9404 5.875 21.853 5.875H13.1169C12.0296 5.875 11.1602 6.77912 11.1602 7.89238V12.2594C11.1602 12.5575 11.4096 12.8211 11.7079 12.8211C12.0062 12.8211 12.2556 12.5575 12.2556 12.2594V7.89238C12.2556 7.40439 12.6543 6.99841 13.1169 6.99841H21.853C22.3156 6.99841 22.7144 7.40439 22.7144 7.89238V12.2594Z" fill="#EF652F" stroke="#EF652F" stroke-width="0.25"/>
<path d="M16.9414 15.1708C16.9414 15.4688 17.1908 15.7325 17.4891 15.7325C17.7874 15.7325 18.0368 15.4688 18.0368 15.1708V6.4367C18.0368 6.13863 17.7874 5.875 17.4891 5.875C17.1908 5.875 16.9414 6.13863 16.9414 6.4367V15.1708Z" fill="#EF652F" stroke="#EF652F" stroke-width="0.25"/>
<path d="M27.3487 26.1333H7.62193C7.39649 26.1333 7.19922 25.7833 7.19922 25.3833C7.19922 24.9833 7.39649 24.6333 7.62193 24.6333H27.3487C27.5741 24.6333 27.7714 24.9833 27.7714 25.3833C27.7714 25.7833 27.5741 26.1333 27.3487 26.1333Z" fill="#EF652F"/>
</svg>
