<svg width="36" height="36" viewBox="0 0 36 36" fill="none" xmlns="http://www.w3.org/2000/svg">
<path d="M11.2051 2.39728L11.5049 3.08475L11.2051 2.39728ZM2.39795 11.203L1.71052 10.9031L2.39795 11.203ZM11.2057 33.6037L10.906 34.2912L11.2057 33.6037ZM24.7962 33.6027L24.4964 32.9153L24.7962 33.6027ZM33.6015 11.2022L32.9141 11.5022L33.6015 11.2022ZM11.7734 33.839L11.4988 34.5369L11.7734 33.839ZM24.2277 33.8385L23.9531 33.1406L24.2277 33.8385ZM25.0969 1.71087C24.9006 1.62522 24.7024 1.54302 24.5024 1.46433L23.9531 2.86013C24.1361 2.93213 24.3174 3.00735 24.4971 3.08573L25.0969 1.71087ZM34.5366 11.4995C34.4575 11.2986 34.375 11.0995 34.2889 10.9023L32.9141 11.5022C32.9928 11.6826 33.0684 11.8648 33.1407 12.0487L34.5366 11.4995ZM34.2896 25.0968C34.3754 24.9002 34.4577 24.7017 34.5365 24.5015L33.1406 23.9523C33.0685 24.1355 32.9932 24.3171 32.9147 24.497L34.2896 25.0968ZM24.5023 34.5364C24.7021 34.4578 24.9 34.3757 25.0961 34.2902L24.4964 32.9153C24.3169 32.9935 24.1358 33.0687 23.9531 33.1406L24.5023 34.5364ZM10.906 34.2912C11.1018 34.3765 11.2994 34.4585 11.4988 34.5369L12.048 33.1411C11.8655 33.0693 11.6847 32.9943 11.5055 32.9162L10.906 34.2912ZM1.46398 24.5032C1.54262 24.703 1.62477 24.901 1.71036 25.0972L3.08522 24.4974C3.0069 24.3179 2.93173 24.1367 2.85978 23.9538L1.46398 24.5032ZM1.71052 10.9031C1.62483 11.0995 1.54259 11.2978 1.46387 11.4978L2.85967 12.0471C2.9317 11.8641 3.00696 11.6827 3.08537 11.5029L1.71052 10.9031ZM11.4987 1.46379C11.2991 1.54231 11.1013 1.62434 10.9053 1.7098L11.5049 3.08475C11.6843 3.00655 11.8653 2.93149 12.0479 2.85964L11.4987 1.46379ZM8.30597 8.30408C8.75745 7.8526 9.07961 7.29853 9.33755 6.75763C9.59079 6.2266 9.81543 5.63169 10.0213 5.13527C10.4718 4.0488 10.8712 3.3611 11.5049 3.08475L10.9053 1.7098C9.65021 2.25715 9.06343 3.52915 8.63568 4.56072C8.40239 5.12332 8.21488 5.62702 7.98362 6.11197C7.75706 6.58706 7.52236 6.96637 7.24531 7.24342L8.30597 8.30408ZM3.08537 11.5029C3.36188 10.8692 4.0498 10.4698 5.13653 10.0194C5.63308 9.81354 6.22808 9.58895 6.75924 9.33573C7.30024 9.0778 7.85441 8.75564 8.30597 8.30408L7.24531 7.24342C6.96823 7.5205 6.58888 7.7552 6.11372 7.98173C5.6287 8.21296 5.12489 8.40043 4.56219 8.63366C3.53042 9.06131 2.25813 9.64793 1.71052 10.9031L3.08537 11.5029ZM4.28892 18.0005C4.28892 17.3617 4.12476 16.7419 3.92449 16.1769C3.72789 15.6222 3.46582 15.0425 3.26023 14.5459C2.81021 13.4589 2.60652 12.6904 2.85967 12.0471L1.46387 11.4978C0.962138 12.7728 1.44703 14.0876 1.8743 15.1197C2.10735 15.6826 2.33111 16.1714 2.51067 16.678C2.68657 17.1743 2.78892 17.6086 2.78892 18.0005H4.28892ZM2.85978 23.9538C2.60662 23.3106 2.81028 22.5421 3.26028 21.4551C3.46586 20.9585 3.72791 20.3788 3.92451 19.8241C4.12476 19.2591 4.28892 18.6393 4.28892 18.0005H2.78892C2.78892 18.3924 2.68658 18.8267 2.51068 19.323C2.33113 19.8296 2.10738 20.3184 1.87434 20.8813C1.44709 21.9134 0.962235 23.2282 1.46398 24.5032L2.85978 23.9538ZM8.30642 27.6964C7.85482 27.2448 7.30059 26.9226 6.75952 26.6647C6.22831 26.4114 5.63322 26.1868 5.13661 25.981C4.04972 25.5306 3.36172 25.1312 3.08522 24.4974L1.71036 25.0972C2.25798 26.3525 3.53045 26.9391 4.56233 27.3667C5.1251 27.6 5.62898 27.7874 6.11406 28.0187C6.58928 28.2452 6.96866 28.4799 7.24576 28.757L8.30642 27.6964ZM11.5055 32.9162C10.8718 32.6398 10.4723 31.9521 10.0218 30.8655C9.81594 30.369 9.5913 29.774 9.33805 29.2429C9.0801 28.702 8.75793 28.1479 8.30642 27.6964L7.24576 28.757C7.52283 29.0341 7.75753 29.4134 7.9841 29.8886C8.21537 30.3736 8.40288 30.8773 8.63617 31.44C9.06393 32.4717 9.65072 33.7438 10.906 34.2912L11.5055 32.9162ZM27.6952 27.6958C27.2437 28.1473 26.9215 28.7014 26.6636 29.2423C26.4104 29.7733 26.1858 30.3682 25.9799 30.8646C25.5295 31.9511 25.1301 32.6388 24.4964 32.9153L25.0961 34.2902C26.3511 33.7427 26.9378 32.4707 27.3656 31.4391C27.5988 30.8765 27.7863 30.3728 28.0176 29.8879C28.2441 29.4128 28.4788 29.0335 28.7558 28.7565L27.6952 27.6958ZM32.9147 24.497C32.6383 25.1307 31.9505 25.5301 30.864 25.9806C30.3676 26.1864 29.7727 26.411 29.2417 26.6642C28.7008 26.9222 28.1467 27.2443 27.6952 27.6958L28.7558 28.7565C29.0329 28.4794 29.4122 28.2447 29.8873 28.0182C30.3722 27.7869 30.8759 27.5995 31.4385 27.3662C32.4701 26.9385 33.7421 26.3518 34.2896 25.0968L32.9147 24.497ZM31.7125 18.0005C31.7125 18.6391 31.8765 19.2587 32.0767 19.8236C32.2731 20.3781 32.535 20.9577 32.7405 21.4541C33.1901 22.5408 33.3937 23.3091 33.1406 23.9523L34.5365 24.5015C35.0379 23.2268 34.5535 21.9124 34.1265 20.8806C33.8936 20.3178 33.67 19.8291 33.4906 19.3227C33.3148 18.8266 33.2125 18.3924 33.2125 18.0005H31.7125ZM27.6956 8.30364C28.1471 8.75506 28.701 9.07718 29.2418 9.33509C29.7727 9.5883 30.3675 9.81291 30.8638 10.0187C31.9499 10.4692 32.6376 10.8685 32.9141 11.5022L34.2889 10.9023C33.7414 9.64747 32.4697 9.06083 31.4384 8.63314C30.8759 8.39989 30.3723 8.21242 29.8875 7.98119C29.4125 7.75467 29.0333 7.52 28.7563 7.24297L27.6956 8.30364ZM18.0007 31.7122C17.362 31.7122 16.7423 31.8763 16.1773 32.0765C15.6227 32.2731 15.0431 32.5351 14.5465 32.7406C13.4597 33.1905 12.6912 33.3942 12.048 33.1411L11.4988 34.5369C12.7736 35.0385 14.0883 34.5537 15.1202 34.1266C15.6831 33.8936 16.1718 33.6699 16.6784 33.4903C17.1746 33.3145 17.6088 33.2122 18.0007 33.2122V31.7122ZM24.4971 3.08573C25.1307 3.36215 25.5301 4.04969 25.9805 5.13577C26.1864 5.63202 26.411 6.22673 26.6642 6.7576C26.9221 7.29834 27.2442 7.85224 27.6956 8.30363L28.7563 7.24297C28.4793 6.96596 28.2446 6.58676 28.0181 6.11183C27.7868 5.62703 27.5994 5.12351 27.3661 4.56109C26.9384 3.52983 26.3516 2.25828 25.0969 1.71087L24.4971 3.08573ZM18.0007 4.28859C18.6394 4.28859 19.2591 4.1245 19.824 3.92432C20.3786 3.72781 20.9582 3.46586 21.4547 3.26037C22.5416 2.81057 23.3099 2.60701 23.9531 2.86013L24.5024 1.46433C23.2277 0.962676 21.9131 1.44729 20.8811 1.87437C20.3183 2.10732 19.8295 2.33098 19.323 2.51046C18.8268 2.68628 18.3926 2.78859 18.0007 2.78859V4.28859ZM33.1407 12.0487C33.3938 12.6919 33.1902 13.4602 32.7405 14.5469C32.5351 15.0433 32.2732 15.6229 32.0767 16.1774C31.8765 16.7423 31.7125 17.3619 31.7125 18.0005H33.2125C33.2125 17.6087 33.3148 17.1745 33.4906 16.6783C33.67 16.1719 33.8936 15.6832 34.1265 15.1204C34.5535 14.0886 35.038 12.7742 34.5366 11.4995L33.1407 12.0487ZM23.9531 33.1406C23.3099 33.3937 22.5415 33.1901 21.4547 32.7404C20.9582 32.5349 20.3786 32.2729 19.824 32.0764C19.2591 31.8763 18.6394 31.7122 18.0007 31.7122V33.2122C18.3926 33.2122 18.8268 33.3145 19.323 33.4903C19.8295 33.6698 20.3182 33.8934 20.8811 34.1264C21.913 34.5534 23.2276 35.038 24.5023 34.5364L23.9531 33.1406ZM18.0007 2.78859C17.6088 2.78859 17.1746 2.68627 16.6784 2.51041C16.1718 2.33089 15.6831 2.10718 15.1202 1.87418C14.0882 1.44699 12.7736 0.962219 11.4987 1.46379L12.0479 2.85964C12.6912 2.60655 13.4596 2.81021 14.5465 3.26013C15.043 3.46568 15.6227 3.72768 16.1773 3.92425C16.7423 4.12447 17.362 4.28859 18.0007 4.28859V2.78859Z" fill="#EF652F"/>
<circle cx="13.5605" cy="13.5598" r="1.10297" transform="rotate(45 13.5605 13.5598)" fill="#EF652F"/>
<circle cx="22.5605" cy="22.5598" r="1.10297" transform="rotate(45 22.5605 22.5598)" fill="#EF652F"/>
<path d="M14.1918 21.8091L21.8101 14.1909" stroke="#EF652F" stroke-width="1.5" stroke-linecap="round" stroke-linejoin="round"/>
</svg>
