<svg width="21" height="21" viewBox="0 0 21 21" fill="none" xmlns="http://www.w3.org/2000/svg">
<path d="M1 1L3.08 1.36L4.043 12.833C4.12 13.77 4.903 14.489 5.843 14.486H16.752C17.649 14.488 18.41 13.828 18.537 12.94L19.486 6.382C19.592 5.649 19.083 4.969 18.351 4.863C18.287 4.854 3.414 4.849 3.414 4.849" stroke="#A5A5AD" stroke-width="2" stroke-linecap="round" stroke-linejoin="round"/>
<path d="M12.375 8.54297H15.148" stroke="#A5A5AD" stroke-width="2" stroke-linecap="round" stroke-linejoin="round"/>
<path fill-rule="evenodd" clip-rule="evenodd" d="M5.40435 17.9531C5.70535 17.9531 5.94835 18.1971 5.94835 18.4971C5.94835 18.7981 5.70535 19.0421 5.40435 19.0421C5.10335 19.0421 4.86035 18.7981 4.86035 18.4971C4.86035 18.1971 5.10335 17.9531 5.40435 17.9531Z" fill="#A5A5AD" stroke="#A5A5AD" stroke-width="2" stroke-linecap="round" stroke-linejoin="round"/>
<path fill-rule="evenodd" clip-rule="evenodd" d="M16.6846 17.9531C16.9856 17.9531 17.2296 18.1971 17.2296 18.4971C17.2296 18.7981 16.9856 19.0421 16.6846 19.0421C16.3836 19.0421 16.1406 18.7981 16.1406 18.4971C16.1406 18.1971 16.3836 17.9531 16.6846 17.9531Z" fill="#A5A5AD" stroke="#A5A5AD" stroke-width="2" stroke-linecap="round" stroke-linejoin="round"/>
</svg>
