<svg width="25" height="24" viewBox="0 0 25 24" fill="none" xmlns="http://www.w3.org/2000/svg">
<rect x="5.5" y="4" width="8" height="8" rx="1.8" stroke="#EF652F" stroke-width="2"/>
<path d="M4.5 13.8C4.5 12.8059 5.30589 12 6.3 12H10.7C11.6941 12 12.5 12.8059 12.5 13.8V20H6.3C5.30589 20 4.5 19.1941 4.5 18.2V13.8Z" stroke="#EF652F" stroke-width="2"/>
<path d="M12.5 13.8C12.5 12.8059 13.3059 12 14.3 12H18.7C19.6941 12 20.5 12.8059 20.5 13.8V18.2C20.5 19.1941 19.6941 20 18.7 20H12.5V13.8Z" stroke="#EF652F" stroke-width="2"/>
<path d="M16.5 12V15" stroke="#EF652F" stroke-width="2" stroke-linecap="round"/>
<path d="M8.5 12V15" stroke="#EF652F" stroke-width="2" stroke-linecap="round"/>
<path d="M9.5 4V7" stroke="#EF652F" stroke-width="2" stroke-linecap="round"/>
</svg>
