<svg width="18" height="17" viewBox="0 0 18 17" fill="none" xmlns="http://www.w3.org/2000/svg">
<path d="M1.54443 1L3.22089 1.29016L3.99706 10.5373C4.05912 11.2925 4.69021 11.872 5.44784 11.8696H14.2404C14.9634 11.8712 15.5767 11.3392 15.6791 10.6235L16.444 5.33784C16.5294 4.74705 16.1192 4.19898 15.5292 4.11354C15.4776 4.10629 3.49009 4.10226 3.49009 4.10226" stroke="white" stroke-width="1.5" stroke-linecap="round" stroke-linejoin="round"/>
<path fill-rule="evenodd" clip-rule="evenodd" d="M5.09422 14.6636C5.33682 14.6636 5.53268 14.8603 5.53268 15.1021C5.53268 15.3447 5.33682 15.5414 5.09422 15.5414C4.85162 15.5414 4.65576 15.3447 4.65576 15.1021C4.65576 14.8603 4.85162 14.6636 5.09422 14.6636Z" fill="white" stroke="white" stroke-width="1.5" stroke-linecap="round" stroke-linejoin="round"/>
<path fill-rule="evenodd" clip-rule="evenodd" d="M14.186 14.6636C14.4286 14.6636 14.6253 14.8603 14.6253 15.1021C14.6253 15.3447 14.4286 15.5414 14.186 15.5414C13.9434 15.5414 13.7476 15.3447 13.7476 15.1021C13.7476 14.8603 13.9434 14.6636 14.186 14.6636Z" fill="white" stroke="white" stroke-width="1.5" stroke-linecap="round" stroke-linejoin="round"/>
</svg>
