<svg width="18" height="18" viewBox="0 0 18 18" fill="none" xmlns="http://www.w3.org/2000/svg">
<path d="M1 1L2.79892 1.31924L3.63179 11.4934C3.69838 12.3243 4.37557 12.9619 5.18855 12.9592H14.6234C15.3992 12.961 16.0573 12.3757 16.1672 11.5883L16.9879 5.7727C17.0796 5.12268 16.6394 4.51967 16.0063 4.42567C15.9509 4.41769 3.08779 4.41325 3.08779 4.41325" stroke="#EF652F" stroke-width="2" stroke-linecap="round" stroke-linejoin="round"/>
<path d="M10.8379 7.68949H13.2362" stroke="#EF652F" stroke-width="2" stroke-linecap="round" stroke-linejoin="round"/>
<path fill-rule="evenodd" clip-rule="evenodd" d="M4.33268 15.666C4.70155 15.666 4.99935 15.9648 4.99935 16.3321C4.99935 16.7006 4.70155 16.9993 4.33268 16.9993C3.96381 16.9993 3.66602 16.7006 3.66602 16.3321C3.66602 15.9648 3.96381 15.666 4.33268 15.666Z" fill="#EF652F" stroke="#EF652F" stroke-width="2" stroke-linecap="round" stroke-linejoin="round"/>
<path fill-rule="evenodd" clip-rule="evenodd" d="M15 15.666C15.3686 15.666 15.6673 15.9648 15.6673 16.3321C15.6673 16.7006 15.3686 16.9993 15 16.9993C14.6315 16.9993 14.334 16.7006 14.334 16.3321C14.334 15.9648 14.6315 15.666 15 15.666Z" fill="#EF652F" stroke="#EF652F" stroke-width="2" stroke-linecap="round" stroke-linejoin="round"/>
</svg>
