<svg width="16" height="16" viewBox="0 0 16 16" fill="none" xmlns="http://www.w3.org/2000/svg">
<path d="M1 1L2.57406 1.27934L3.30282 10.1817C3.36109 10.9088 3.95363 11.4667 4.66498 11.4643H12.9205C13.5993 11.4659 14.1752 10.9538 14.2713 10.2647L14.9894 5.17611C15.0696 4.60735 14.6845 4.07971 14.1305 3.99746C14.0821 3.99048 2.82681 3.9866 2.82681 3.9866" stroke="white" stroke-width="1.5" stroke-linecap="round" stroke-linejoin="round"/>
<path d="M9.60742 6.85281H11.7059" stroke="white" stroke-width="1.5" stroke-linecap="round" stroke-linejoin="round"/>
<path fill-rule="evenodd" clip-rule="evenodd" d="M3.91683 13.8333C4.23959 13.8333 4.50016 14.0947 4.50016 14.416C4.50016 14.7385 4.23959 14.9999 3.91683 14.9999C3.59407 14.9999 3.3335 14.7385 3.3335 14.416C3.3335 14.0947 3.59407 13.8333 3.91683 13.8333Z" fill="white" stroke="white" stroke-width="1.5" stroke-linecap="round" stroke-linejoin="round"/>
<path fill-rule="evenodd" clip-rule="evenodd" d="M13.2493 13.8333C13.5718 13.8333 13.8332 14.0947 13.8332 14.416C13.8332 14.7385 13.5718 14.9999 13.2493 14.9999C12.9268 14.9999 12.6665 14.7385 12.6665 14.416C12.6665 14.0947 12.9268 13.8333 13.2493 13.8333Z" fill="white" stroke="white" stroke-width="1.5" stroke-linecap="round" stroke-linejoin="round"/>
</svg>
