<svg width="20" height="16" viewBox="0 0 20 16" fill="none" xmlns="http://www.w3.org/2000/svg">
<path d="M6.66732 12.9987C6.66732 13.9192 5.92113 14.6654 5.00065 14.6654C4.08018 14.6654 3.33398 13.9192 3.33398 12.9987M6.66732 12.9987C6.66732 12.0782 5.92113 11.332 5.00065 11.332C4.08018 11.332 3.33398 12.0782 3.33398 12.9987M6.66732 12.9987H11.6673M3.33398 12.9987H2.50065C1.58018 12.9987 0.833984 12.2525 0.833984 11.332V2.9987C0.833984 2.07822 1.58018 1.33203 2.50065 1.33203H10.0007C10.9211 1.33203 11.6673 2.07822 11.6673 2.9987V3.83203M16.6673 12.9987C16.6673 13.9192 15.9211 14.6654 15.0007 14.6654C14.0802 14.6654 13.334 13.9192 13.334 12.9987M16.6673 12.9987C16.6673 12.0782 15.9211 11.332 15.0007 11.332C14.0802 11.332 13.334 12.0782 13.334 12.9987M16.6673 12.9987H17.5007C18.4211 12.9987 19.1673 12.2525 19.1673 11.332V8.58333C19.1673 8.20488 19.0385 7.8377 18.8021 7.54217L16.3344 4.45754C16.0181 4.06218 15.5393 3.83203 15.0329 3.83203H11.6673M13.334 12.9987H11.6673M11.6673 3.83203V12.9987" stroke="#EF652F" stroke-width="1.5"/>
</svg>
