<svg width="18" height="16" viewBox="0 0 18 16" fill="none" xmlns="http://www.w3.org/2000/svg">
<path d="M3.04432 4.56294C3.67835 3.46476 4.60372 2.56331 5.71812 1.95824C6.83252 1.35317 8.09253 1.06806 9.35886 1.13442C10.6252 1.20079 11.8485 1.61605 12.8935 2.33429C13.9386 3.05253 14.7647 4.04577 15.2804 5.20421M1.46289 2.42743L2.08981 5.14301C2.19659 5.60552 2.65809 5.8939 3.1206 5.78713L5.83618 5.16021M14.9537 11.4387C14.3197 12.5369 13.3943 13.4383 12.2799 14.0434C11.1655 14.6485 9.90551 14.9336 8.63918 14.8672C7.37285 14.8009 6.14954 14.3856 5.1045 13.6674C4.05945 12.9491 3.23338 11.9559 2.71761 10.7975M16.5351 13.5742L15.9082 10.8587C15.8015 10.3961 15.34 10.1078 14.8774 10.2145L12.1619 10.8415" stroke="#EF652F" stroke-width="1.5" stroke-linecap="round"/>
</svg>
