<svg width="24" height="24" viewBox="0 0 24 24" fill="none" xmlns="http://www.w3.org/2000/svg">
<path d="M18.1875 22.875H4.6875C3.24 22.875 2.0625 21.6975 2.0625 20.25C2.0625 20.0437 2.23125 19.875 2.4375 19.875H20.4375C20.6437 19.875 20.8125 20.0437 20.8125 20.25C20.8125 21.6975 19.635 22.875 18.1875 22.875ZM2.85 20.625C3.0225 21.48 3.78 22.125 4.6875 22.125H18.1875C19.095 22.125 19.8488 21.48 20.025 20.625H2.85Z" fill="#EF652F"/>
<path d="M13.3688 20.625H9.50625C6.74625 20.625 4.5 18.4388 4.5 15.75V9C4.5 8.38125 5.00625 7.875 5.625 7.875H17.25C17.8687 7.875 18.375 8.38125 18.375 9V15.75C18.375 18.4388 16.1288 20.625 13.3688 20.625ZM5.625 8.625C5.41875 8.625 5.25 8.79375 5.25 9V15.75C5.25 18.0262 7.15875 19.875 9.50625 19.875H13.365C15.7162 19.875 17.625 18.0262 17.625 15.75V9C17.625 8.79375 17.4563 8.625 17.25 8.625H5.625Z" fill="#EF652F"/>
<path d="M10.3125 10.125H6.5625C6.35625 10.125 6.1875 9.95625 6.1875 9.75C6.1875 9.54375 6.35625 9.375 6.5625 9.375H10.3125C10.5188 9.375 10.6875 9.54375 10.6875 9.75C10.6875 9.95625 10.5188 10.125 10.3125 10.125ZM12.5625 10.125H11.8125C11.6062 10.125 11.4375 9.95625 11.4375 9.75C11.4375 9.54375 11.6062 9.375 11.8125 9.375H12.5625C12.7688 9.375 12.9375 9.54375 12.9375 9.75C12.9375 9.95625 12.7688 10.125 12.5625 10.125ZM18.75 16.875H18C17.7937 16.875 17.625 16.7063 17.625 16.5C17.625 16.2937 17.7937 16.125 18 16.125H18.75C20.1975 16.125 21.375 14.9475 21.375 13.5C21.375 12.0525 20.1975 10.875 18.75 10.875H18C17.7937 10.875 17.625 10.7062 17.625 10.5C17.625 10.2937 17.7937 10.125 18 10.125H18.75C20.61 10.125 22.125 11.64 22.125 13.5C22.125 15.36 20.61 16.875 18.75 16.875Z" fill="#EF652F"/>
<path d="M18.7496 15.3759H17.9996C17.7933 15.3759 17.6246 15.2072 17.6246 15.0009C17.6246 14.7947 17.7933 14.6259 17.9996 14.6259H18.7496C19.3683 14.6259 19.8746 14.1197 19.8746 13.5009C19.8746 12.8822 19.3683 12.3759 18.7496 12.3759H17.9996C17.7933 12.3759 17.6246 12.2072 17.6246 12.0009C17.6246 11.7947 17.7933 11.6259 17.9996 11.6259H18.7496C19.7846 11.6259 20.6246 12.4659 20.6246 13.5009C20.6246 14.5359 19.7846 15.3759 18.7496 15.3759ZM7.1246 7.12594C7.0121 7.12594 6.8996 7.07344 6.8246 6.97594C6.70085 6.81094 6.7346 6.57469 6.8996 6.45094L8.16335 5.50219C8.23835 5.44594 8.2496 5.40844 8.2496 5.40844C8.24585 5.39344 8.1746 5.29219 7.93085 5.20219C7.4921 5.03719 7.21085 4.76719 7.14335 4.44469C7.0871 4.18219 7.17335 3.92344 7.38335 3.70969L8.35835 2.73469C8.5046 2.58844 8.74085 2.58844 8.8871 2.73469C9.03335 2.88094 9.03335 3.11719 8.8871 3.26344L7.9121 4.23844C7.8821 4.26844 7.8746 4.28719 7.8746 4.29094C7.87835 4.30594 7.9496 4.40719 8.19335 4.49719C8.65835 4.66969 8.9396 4.95844 8.9921 5.30719C9.03335 5.59969 8.8946 5.88844 8.61335 6.09844L7.3496 7.05094C7.2821 7.10344 7.20335 7.12594 7.1246 7.12594ZM14.2496 7.12594C14.1371 7.12594 14.0246 7.07344 13.9496 6.97594C13.8258 6.81094 13.8596 6.57469 14.0246 6.45094L15.2883 5.50219C15.3633 5.44594 15.3746 5.40844 15.3746 5.40844C15.3708 5.39344 15.2996 5.29219 15.0559 5.20219C14.6171 5.03719 14.3358 4.76719 14.2683 4.44469C14.2121 4.18219 14.2983 3.92344 14.5083 3.70969L15.4833 2.73469C15.6296 2.58844 15.8658 2.58844 16.0121 2.73469C16.1583 2.88094 16.1583 3.11719 16.0121 3.26344L15.0371 4.23844C15.0071 4.26844 14.9996 4.28719 14.9996 4.29094C15.0033 4.30594 15.0746 4.40719 15.3183 4.49719C15.7833 4.66969 16.0646 4.95844 16.1171 5.30719C16.1583 5.59969 16.0196 5.88844 15.7383 6.09844L14.4746 7.05094C14.4071 7.10344 14.3283 7.12594 14.2496 7.12594ZM10.8746 7.12594C10.7621 7.12594 10.6496 7.07344 10.5746 6.97594C10.4508 6.81094 10.4846 6.57469 10.6496 6.45094L11.9133 5.50219C11.9883 5.44594 11.9996 5.40844 11.9996 5.40844C11.9958 5.39344 11.9246 5.29219 11.6808 5.20219C11.2421 5.03719 10.9608 4.76719 10.8933 4.44469C10.8371 4.18219 10.9233 3.92344 11.1333 3.70969L12.1083 2.73469C12.2546 2.58844 12.4908 2.58844 12.6371 2.73469C12.7833 2.88094 12.7833 3.11719 12.6371 3.26344L11.6621 4.23844C11.6321 4.26844 11.6246 4.28719 11.6246 4.29094C11.6283 4.30594 11.6996 4.40719 11.9433 4.49719C12.4083 4.66969 12.6896 4.95844 12.7421 5.30719C12.7833 5.59969 12.6446 5.88844 12.3633 6.09844L11.0996 7.05094C11.0321 7.10344 10.9533 7.12594 10.8746 7.12594Z" fill="#EF652F"/>
</svg>
