<svg width="14" height="17" viewBox="0 0 14 17" fill="none" xmlns="http://www.w3.org/2000/svg">
<path d="M13 3.20588C13 4.42416 10.3137 5.41176 7 5.41176C3.68629 5.41176 1 4.42416 1 3.20588M13 3.20588C13 1.98761 10.3137 1 7 1C3.68629 1 1 1.98761 1 3.20588M13 3.20588V13.7941C13 15.0124 10.3137 16 7 16C3.68629 16 1 15.0124 1 13.7941V3.20588M13 6.73529C13 7.95357 10.3137 8.94118 7 8.94118C3.68629 8.94118 1 7.95357 1 6.73529M13 10.2647C13 11.483 10.3137 12.4706 7 12.4706C3.68629 12.4706 1 11.483 1 10.2647" stroke="#EF652F" stroke-width="1.5"/>
</svg>
