<svg width="18" height="21" viewBox="0 0 18 21" fill="none" xmlns="http://www.w3.org/2000/svg">
<path d="M2.05075 6.73417C1.20584 5.60763 2.00966 4 3.41783 4H14.5823C15.9905 4 16.7943 5.60763 15.9494 6.73417V6.73417C15.3332 7.55582 15.0001 8.55519 15.0001 9.58226V15.9999C15.0001 18.2091 13.2092 19.9999 11.0001 19.9999H7.00011C4.79097 19.9999 3.00011 18.2091 3.00011 15.9999V9.58226C3.00011 8.55519 2.66699 7.55582 2.05075 6.73417V6.73417Z" stroke="#A5A5AD" stroke-width="1.5"/>
<path d="M11.0017 15L11.0017 9" stroke="#A5A5AD" stroke-width="1.5" stroke-linecap="round" stroke-linejoin="round"/>
<path d="M6.99829 15L6.99829 9" stroke="#A5A5AD" stroke-width="1.5" stroke-linecap="round" stroke-linejoin="round"/>
<path d="M13.0009 3.99999L12.4568 2.36754C12.1846 1.55086 11.4203 1 10.5594 1H7.44249C6.58163 1 5.81735 1.55086 5.54512 2.36755L5.00098 3.99999" stroke="#A5A5AD" stroke-width="1.5" stroke-linecap="round"/>
</svg>
