<svg width="20" height="17" viewBox="0 0 20 17" fill="none" xmlns="http://www.w3.org/2000/svg">
<path d="M3.17008 9.64817L9.46769 15.505C9.64784 15.6725 9.73791 15.7563 9.83932 15.7907C9.94352 15.826 10.0565 15.826 10.1607 15.7907C10.2621 15.7563 10.3522 15.6725 10.5323 15.505L10.5323 15.505L16.8299 9.64817C18.6224 7.9812 18.8395 5.21923 17.3296 3.29262L17.0731 2.96523C15.2789 0.675833 11.7055 1.06236 10.4423 3.68247C10.2638 4.05288 9.73624 4.05288 9.55766 3.68247C8.29453 1.06236 4.72114 0.675831 2.92694 2.96522L2.67036 3.29262C1.16047 5.21923 1.37764 7.9812 3.17008 9.64817Z" fill="#EF652F" stroke="#EF652F" stroke-width="1.5"/>
</svg>
