<svg width="18" height="17" viewBox="0 0 18 17" fill="none" xmlns="http://www.w3.org/2000/svg">
<path d="M1 8C1 6.74097 1.59278 5.55542 2.6 4.8L6.6 1.8C8.02222 0.733333 9.97778 0.733333 11.4 1.8L15.4 4.8C16.4072 5.55542 17 6.74097 17 8V12C17 14.2091 15.2091 16 13 16H12.5263C11.974 16 11.5263 15.5523 11.5263 15V13.2C11.5263 12.0954 10.6309 11.2 9.52632 11.2H8.47368C7.36911 11.2 6.47368 12.0954 6.47368 13.2V15C6.47368 15.5523 6.02597 16 5.47368 16H5C2.79086 16 1 14.2091 1 12L1 8Z" stroke="#A5A5AD" stroke-width="2"/>
</svg>
