<svg width="24" height="24" viewBox="0 0 24 24" fill="none" xmlns="http://www.w3.org/2000/svg">
<path fill-rule="evenodd" clip-rule="evenodd" d="M17.3631 7.16827C17.3631 10.0154 14.9657 12.3365 12.0248 12.3365C9.05208 12.3365 6.65468 10.0154 6.65468 7.16827C6.65468 4.32108 9.05208 2 12.0248 2C14.9657 2 17.3631 4.32108 17.3631 7.16827ZM14.2305 7.16827C14.2305 5.99226 13.2395 5.03287 12.0248 5.03287C10.7782 5.03287 9.78723 5.99226 9.81925 7.16827C9.81925 8.34429 10.8102 9.30361 12.0248 9.30361C13.2395 9.30361 14.2305 8.34429 14.2305 7.16827Z" fill="#B5B5B5"/>
<path d="M17.2671 15.3385C16.3082 15.9265 15.2533 16.3288 14.1666 16.5764L17.2032 19.4236C17.8105 20.0117 17.8105 20.971 17.2032 21.559C16.596 22.147 15.605 22.147 14.9977 21.559L12.0568 18.7118L9.11605 21.559C8.79639 21.8375 8.41281 21.9922 7.99726 21.9922C7.58171 21.9922 7.19813 21.8685 6.87848 21.559C6.27112 20.971 6.27112 20.0117 6.87848 19.4236L9.85128 16.5454C8.76441 16.2978 7.70957 15.8956 6.75061 15.3075C6.01541 14.8743 5.79165 13.9459 6.2072 13.2341C6.68669 12.5222 7.64564 12.3366 8.38084 12.7698C10.5545 14.1006 13.3993 14.1006 15.573 12.7698C16.3082 12.3056 17.2992 12.5222 17.7466 13.2341C18.2261 13.9459 18.0024 14.9052 17.2671 15.3385Z" fill="#B5B5B5"/>
</svg>
