<svg width="24" height="24" viewBox="0 0 24 24" fill="none" xmlns="http://www.w3.org/2000/svg">
<g clip-path="url(#clip0_598_3624)">
<path d="M12 21.75C12.2071 21.75 12.375 21.5821 12.375 21.375C12.375 21.1679 12.2071 21 12 21C11.7929 21 11.625 21.1679 11.625 21.375C11.625 21.5821 11.7929 21.75 12 21.75Z" fill="#EF652F"/>
<path d="M15.9877 17.0151C17.6994 16.1226 19.0622 14.6817 19.858 12.923C20.6538 11.1643 20.8366 9.18941 20.3771 7.3145C19.9177 5.43959 18.8425 3.77301 17.3237 2.58148C15.805 1.38995 13.9304 0.742371 12 0.742371C10.0696 0.742371 8.19502 1.38995 6.67625 2.58148C5.15748 3.77301 4.08233 5.43959 3.62287 7.3145C3.16341 9.18941 3.3462 11.1643 4.142 12.923C4.93779 14.6817 6.30058 16.1226 8.01225 17.0151C3.192 17.3781 0.75 18.4015 0.75 20.0616C0.75 22.696 6.86775 23.2491 12 23.2491C17.1322 23.2491 23.25 22.696 23.25 20.0616C23.25 18.4015 20.808 17.3781 15.9877 17.0151ZM4.125 9.37415C4.12473 7.95988 4.50533 6.57163 5.22682 5.35524C5.94831 4.13884 6.98406 3.13919 8.22527 2.46129C9.46648 1.78338 10.8674 1.45225 12.2807 1.50266C13.6941 1.55308 15.0678 1.98318 16.2576 2.7478C17.4473 3.51241 18.4092 4.58332 19.0422 5.84803C19.6752 7.11274 19.9559 8.52457 19.8549 9.93523C19.7538 11.3459 19.2748 12.7033 18.468 13.8649C17.6613 15.0265 16.5566 15.9494 15.27 16.5366C15.2292 16.5547 15.1921 16.5801 15.1605 16.6116L12.2467 19.5366C12.1821 19.5944 12.0992 19.6278 12.0126 19.631C11.9259 19.6342 11.8408 19.6071 11.772 19.5543L10.722 18.5043L10.7198 18.502L8.83838 16.6169C8.80678 16.5854 8.76967 16.56 8.72888 16.5419C7.35671 15.9121 6.19379 14.9022 5.37785 13.6319C4.56191 12.3615 4.12713 10.884 4.125 9.37415ZM12 22.4991C5.52338 22.4991 1.5 21.5654 1.5 20.0616C1.5 18.8331 4.18762 17.9793 8.8755 17.7115L9.60375 18.4413C7.24837 18.5736 4.125 18.9573 4.125 20.0616C4.125 21.3089 8.10675 21.6366 10.4805 21.7225H10.494C10.5935 21.7243 10.6895 21.6864 10.7611 21.6173C10.8326 21.5482 10.8738 21.4535 10.8756 21.3541C10.8773 21.2546 10.8395 21.1586 10.7704 21.087C10.7013 21.0154 10.6066 20.9743 10.5071 20.9725C6.91687 20.8446 5.25 20.3294 4.91512 20.0616C5.24513 19.7991 6.86137 19.2981 10.3196 19.1583L11.2594 20.0991C11.4625 20.2765 11.7232 20.3741 11.9929 20.3736C12.2753 20.3728 12.5477 20.2689 12.759 20.0815L13.6807 19.1575C17.1375 19.2981 18.7549 19.7991 19.0849 20.0616C18.7474 20.3294 17.0835 20.8446 13.4936 20.9733C13.3942 20.975 13.2995 21.0162 13.2304 21.0877C13.1613 21.1593 13.1234 21.2554 13.1252 21.3548C13.1269 21.4543 13.1681 21.549 13.2397 21.6181C13.3112 21.6872 13.4073 21.725 13.5068 21.7233H13.5203C15.8936 21.6366 19.875 21.3089 19.875 20.0616C19.875 18.9576 16.752 18.5736 14.3966 18.4413L15.1249 17.7115C19.8124 17.9793 22.5 18.8331 22.5 20.0616C22.5 21.5654 18.4766 22.4991 12 22.4991Z" fill="#EF652F"/>
<path d="M19.125 9.375C19.125 7.96581 18.7071 6.58827 17.9242 5.41657C17.1413 4.24486 16.0285 3.33164 14.7266 2.79236C13.4247 2.25309 11.9921 2.11199 10.61 2.38691C9.22787 2.66183 7.95832 3.34042 6.96187 4.33687C5.96542 5.33332 5.28683 6.60287 5.01191 7.98498C4.73699 9.3671 4.87809 10.7997 5.41736 12.1016C5.95664 13.4035 6.86987 14.5163 8.04157 15.2992C9.21327 16.0821 10.5908 16.5 12 16.5C13.889 16.4979 15.7001 15.7466 17.0358 14.4108C18.3716 13.0751 19.1229 11.264 19.125 9.375ZM5.625 9.375C5.625 8.11415 5.99889 6.88161 6.69938 5.83324C7.39988 4.78488 8.39552 3.96778 9.5604 3.48527C10.7253 3.00276 12.0071 2.87652 13.2437 3.1225C14.4803 3.36848 15.6162 3.97564 16.5078 4.8672C17.3994 5.75876 18.0065 6.89467 18.2525 8.1313C18.4985 9.36793 18.3722 10.6497 17.8897 11.8146C17.4072 12.9795 16.5901 13.9751 15.5418 14.6756C14.4934 15.3761 13.2609 15.75 12 15.75C10.3098 15.7481 8.68942 15.0759 7.49428 13.8807C6.29914 12.6856 5.62689 11.0652 5.625 9.375Z" fill="#EF652F"/>
<path d="M15.75 7.6875C15.7491 6.89212 15.4327 6.12958 14.8703 5.56717C14.3079 5.00475 13.5454 4.68839 12.75 4.6875H10.125C9.82663 4.6875 9.54048 4.80603 9.3295 5.017C9.11853 5.22798 9 5.51413 9 5.8125V12.9375C9 13.2359 9.11853 13.522 9.3295 13.733C9.54048 13.944 9.82663 14.0625 10.125 14.0625C10.4234 14.0625 10.7095 13.944 10.9205 13.733C11.1315 13.522 11.25 13.2359 11.25 12.9375V10.6875H12.75C13.5454 10.6866 14.3079 10.3702 14.8703 9.80783C15.4327 9.24542 15.7491 8.48288 15.75 7.6875ZM10.875 9.9375C10.7755 9.9375 10.6802 9.97701 10.6098 10.0473C10.5395 10.1177 10.5 10.213 10.5 10.3125V12.9375C10.5 13.037 10.4605 13.1323 10.3902 13.2027C10.3198 13.273 10.2245 13.3125 10.125 13.3125C10.0255 13.3125 9.93016 13.273 9.85983 13.2027C9.78951 13.1323 9.75 13.037 9.75 12.9375V5.8125C9.75 5.71304 9.78951 5.61766 9.85983 5.54734C9.93016 5.47701 10.0255 5.4375 10.125 5.4375H12.75C13.3467 5.4375 13.919 5.67455 14.341 6.09651C14.7629 6.51847 15 7.09076 15 7.6875C15 8.28424 14.7629 8.85653 14.341 9.27849C13.919 9.70045 13.3467 9.9375 12.75 9.9375H10.875Z" fill="#EF652F"/>
<path d="M14.25 7.6875C14.25 7.28968 14.092 6.90814 13.8107 6.62684C13.5294 6.34554 13.1478 6.1875 12.75 6.1875H10.875C10.7755 6.1875 10.6802 6.22701 10.6098 6.29733C10.5395 6.36766 10.5 6.46304 10.5 6.5625V8.8125C10.5 8.91196 10.5395 9.00734 10.6098 9.07767C10.6802 9.14799 10.7755 9.1875 10.875 9.1875H12.75C13.1478 9.1875 13.5294 9.02946 13.8107 8.74816C14.092 8.46686 14.25 8.08532 14.25 7.6875ZM11.25 6.9375H12.75C12.9489 6.9375 13.1397 7.01652 13.2803 7.15717C13.421 7.29782 13.5 7.48859 13.5 7.6875C13.5 7.88641 13.421 8.07718 13.2803 8.21783C13.1397 8.35848 12.9489 8.4375 12.75 8.4375H11.25V6.9375Z" fill="#EF652F"/>
</g>
<defs>
<clipPath id="clip0_598_3624">
<rect width="24" height="24" fill="white"/>
</clipPath>
</defs>
</svg>
