<svg width="16" height="16" viewBox="0 0 16 16" fill="none" xmlns="http://www.w3.org/2000/svg">
<path d="M1.00626 2.40433C1.66513 9.04985 6.95015 14.3349 13.5957 14.9937C14.3686 15.0704 15 14.4334 15 13.6567V11.1545C15 10.5492 14.6127 10.0118 14.0384 9.82041L11.6056 9.00948C11.1003 8.84104 10.5432 8.97256 10.1665 9.34921L9.77713 9.73862C9.54251 9.97324 9.17479 10.0132 8.90094 9.82586C7.63895 8.9626 6.93109 8.25625 6.15959 7.09466C5.97903 6.82279 6.02219 6.46207 6.25297 6.23129L6.65079 5.83347C7.02744 5.45682 7.15896 4.89969 6.99052 4.39435L6.17959 1.96159C5.98818 1.38734 5.45078 1 4.84546 1H2.34332C1.56664 1 0.929635 1.63144 1.00626 2.40433Z" stroke="black" stroke-width="1.5" stroke-linecap="round"/>
</svg>
