<svg width="18" height="18" viewBox="0 0 18 18" fill="none" xmlns="http://www.w3.org/2000/svg">
<path d="M0.00805219 1.80556C0.855166 10.3498 7.6502 17.1448 16.1944 17.9919C17.1881 18.0905 18 17.2715 18 16.2729V13.0558C18 12.2776 17.502 11.5866 16.7637 11.3405L13.6358 10.2979C12.9861 10.0813 12.2698 10.2504 11.7855 10.7347L11.2849 11.2354C10.9832 11.537 10.5105 11.5884 10.1583 11.3475C8.53579 10.2376 7.62568 9.32946 6.63376 7.83599C6.4016 7.48645 6.4571 7.02266 6.75382 6.72594L7.2653 6.21446C7.74956 5.73019 7.91866 5.01388 7.70209 4.36417L6.65948 1.23633C6.41337 0.498004 5.72243 0 4.94417 0H1.72713C0.728541 0 -0.0904689 0.811852 0.00805219 1.80556Z" fill="#EF652F"/>
</svg>
