<svg width="18" height="18" viewBox="0 0 18 18" fill="none" xmlns="http://www.w3.org/2000/svg">
<path d="M4.875 14.775H2.4C1.48873 14.775 0.75 14.0363 0.75 13.125V6.525C0.75 5.61373 1.48873 4.875 2.4 4.875H4.875M4.875 14.775V11.475M4.875 14.775V15.6C4.875 16.5113 5.61373 17.25 6.525 17.25H11.475C12.3863 17.25 13.125 16.5113 13.125 15.6V14.775M4.875 11.475H4.05M4.875 11.475H13.125M13.125 14.775H15.6C16.5113 14.775 17.25 14.0363 17.25 13.125V6.525C17.25 5.61373 16.5113 4.875 15.6 4.875H13.125M13.125 14.775V11.475M13.125 11.475H13.95M4.875 4.875V2.4C4.875 1.48873 5.61373 0.75 6.525 0.75H11.475C12.3863 0.75 13.125 1.48873 13.125 2.4V4.875M4.875 4.875H13.125M13.125 8.175H12.3" stroke="#A5A5AD" stroke-width="1.5" stroke-linecap="round"/>
</svg>
