<svg width="20" height="21" viewBox="0 0 20 21" fill="none" xmlns="http://www.w3.org/2000/svg">
<path fill-rule="evenodd" clip-rule="evenodd" d="M15.9788 4.93401L11.1051 2.73842C10.3994 2.42053 9.60067 2.42053 8.89502 2.73842L4.02132 4.93401C3.67751 5.0889 3.45459 5.44426 3.45459 5.83744V11.0005C3.45459 12.9051 4.32962 14.6925 5.80401 15.7995L8.91305 18.1338C9.56329 18.6221 10.4368 18.6221 11.087 18.1338L14.1961 15.7995C15.6705 14.6925 16.5455 12.9051 16.5455 11.0005V5.83745C16.5455 5.44426 16.3226 5.0889 15.9788 4.93401ZM13.6566 8.98254C14.0235 8.56976 13.9863 7.93768 13.5735 7.57077C13.1608 7.20385 12.5287 7.24103 12.1618 7.65381L8.95146 11.2654L7.75996 10.1931C7.34945 9.82361 6.71716 9.85688 6.3477 10.2674C5.97825 10.6779 6.01152 11.3102 6.42203 11.6797L7.98748 13.0886C8.60594 13.6452 9.55926 13.592 10.112 12.9702L13.6566 8.98254Z" fill="#EF652F"/>
</svg>
