<svg width="20" height="20" viewBox="0 0 20 20" fill="none" xmlns="http://www.w3.org/2000/svg">
<path d="M14.168 7.91797C14.168 9.06856 13.2352 10.0013 12.0846 10.0013C10.934 10.0013 10.0013 9.06856 10.0013 7.91797M14.168 7.91797C14.168 9.06856 15.1007 10.0013 16.2513 10.0013C16.394 10.0013 16.5333 9.98696 16.668 9.95963M14.168 7.91797V7.5013M10.0013 7.91797C10.0013 9.06856 9.06856 10.0013 7.91797 10.0013C6.76738 10.0013 5.83464 9.06856 5.83464 7.91797M10.0013 7.91797V7.5013M5.83464 7.91797C5.83464 9.06856 4.9019 10.0013 3.7513 10.0013C3.60861 10.0013 3.46926 9.98696 3.33464 9.95963M5.83464 7.91797V7.5013M16.668 9.95963C17.6189 9.7666 18.3346 8.92587 18.3346 7.91797V5.55686C18.3346 5.19624 18.2177 4.84535 18.0013 4.55686L16.3346 2.33464C16.0199 1.91496 15.5259 1.66797 15.0013 1.66797H5.0013C4.47671 1.66797 3.98273 1.91496 3.66797 2.33464L2.0013 4.55686C1.78493 4.84535 1.66797 5.19624 1.66797 5.55686V7.91797C1.66797 8.92587 2.3837 9.7666 3.33464 9.95963M16.668 9.95963V16.668C16.668 17.5884 15.9218 18.3346 15.0013 18.3346H12.5013M3.33464 9.95963V16.668C3.33464 17.5884 4.08083 18.3346 5.0013 18.3346H7.5013M7.5013 18.3346V15.0013C7.5013 14.0808 8.24749 13.3346 9.16797 13.3346H10.8346C11.7551 13.3346 12.5013 14.0808 12.5013 15.0013V18.3346M7.5013 18.3346H12.5013" stroke="#EF652F" stroke-width="1.5" stroke-linecap="round"/>
</svg>
