<svg width="24" height="24" viewBox="0 0 24 24" fill="none" xmlns="http://www.w3.org/2000/svg">
<g clip-path="url(#clip0_606_3688)">
<path d="M21.7645 12.7671C21.6418 12.6782 21.4994 12.6202 21.3495 12.5981C21.1996 12.576 21.0465 12.5904 20.9034 12.6402C20.845 12.66 20.7858 12.682 20.7274 12.7052C20.591 12.7577 20.4456 12.7828 20.2995 12.7789C20.1535 12.7751 20.0096 12.7424 19.8761 12.6828C19.5091 12.5273 19.1127 12.4533 18.7144 12.4658C18.3422 12.463 17.9738 12.5395 17.6335 12.6902C17.3675 12.8134 17.0637 12.8271 16.7877 12.7284C16.6503 12.6787 16.5106 12.6359 16.369 12.6002C16.3059 12.5861 16.2398 12.5972 16.1847 12.6311C16.1297 12.665 16.09 12.719 16.0742 12.7817C16.0584 12.8444 16.0676 12.9108 16.1 12.9668C16.1323 13.0227 16.1853 13.0639 16.2475 13.0814C16.3729 13.1131 16.4967 13.1509 16.6183 13.195C17.0161 13.338 17.4541 13.3192 17.8381 13.1425C18.1163 13.0199 18.4176 12.9584 18.7216 12.962C18.7273 12.962 18.733 12.962 18.7388 12.9614C19.0605 12.9518 19.3804 13.0117 19.6768 13.137C19.8706 13.223 20.0794 13.2698 20.2913 13.2748C20.5033 13.2798 20.7141 13.2428 20.9117 13.1661C20.9622 13.1459 21.0134 13.1269 21.0639 13.1098C21.1327 13.0865 21.206 13.08 21.2778 13.0907C21.3496 13.1014 21.4178 13.1291 21.4767 13.1715C21.5357 13.2138 21.5837 13.2696 21.6168 13.3342C21.6498 13.3988 21.667 13.4704 21.667 13.543V14.0033C21.5227 13.922 21.3599 13.8794 21.1943 13.8795H15.5537V9.69597C15.5542 9.55867 15.5228 9.42313 15.462 9.29999C15.4013 9.17686 15.3128 9.06949 15.2035 8.9863C15.0966 8.90338 14.9718 8.84637 14.8391 8.81975C14.7064 8.79314 14.5694 8.79764 14.4387 8.8329C14.3171 8.86546 14.198 8.90674 14.0823 8.95639C13.8465 9.05932 13.5797 9.06549 13.3393 8.97358C13.2082 8.92182 13.0738 8.87875 12.937 8.84468C12.9053 8.83677 12.8724 8.83518 12.8402 8.83999C12.8079 8.8448 12.7769 8.85592 12.749 8.87271C12.721 8.8895 12.6966 8.91163 12.6772 8.93785C12.6578 8.96406 12.6437 8.99384 12.6358 9.02549C12.6279 9.05714 12.6263 9.09003 12.6311 9.12229C12.6359 9.15455 12.6471 9.18555 12.6639 9.21352C12.6806 9.24149 12.7028 9.26587 12.729 9.28528C12.7552 9.3047 12.785 9.31875 12.8166 9.32666C12.9322 9.35537 13.0457 9.39172 13.1564 9.43545C13.5188 9.57519 13.9216 9.56698 14.2781 9.41259C14.3718 9.37236 14.4682 9.33893 14.5667 9.31256C14.6239 9.29724 14.6838 9.29537 14.7418 9.30711C14.7998 9.31886 14.8543 9.34389 14.901 9.38024C14.9496 9.41723 14.989 9.46499 15.0161 9.51977C15.0431 9.57455 15.0571 9.63487 15.057 9.69597V10.1095C14.9127 10.0282 14.7499 9.98558 14.5843 9.98567H12.2485V7.06083C12.2482 6.80392 12.146 6.55762 11.9644 6.37596C11.7827 6.1943 11.5364 6.0921 11.2795 6.0918H2.08523C2.01938 6.0918 1.95623 6.11795 1.90966 6.16451C1.86309 6.21107 1.83693 6.27422 1.83691 6.34007V21.9154C1.83693 21.9812 1.86309 22.0444 1.90966 22.091C1.95622 22.1375 2.01938 22.1637 2.08523 22.1637H21.9153C21.9812 22.1637 22.0443 22.1375 22.0909 22.091C22.1374 22.0444 22.1636 21.9812 22.1636 21.9154V13.543C22.1645 13.3911 22.1286 13.2412 22.0591 13.1061C21.9896 12.9711 21.8886 12.8548 21.7645 12.7671ZM21.667 14.8485V17.7733H18.8585V14.376H21.1945C21.3198 14.3762 21.4399 14.426 21.5284 14.5146C21.617 14.6031 21.6668 14.7232 21.667 14.8485ZM15.057 10.9547V13.8795H13.2334C13.1681 13.8803 13.1058 13.9068 13.06 13.9533C13.0141 13.9998 12.9884 14.0625 12.9884 14.1277C12.9884 14.193 13.0141 14.2557 13.06 14.3022C13.1058 14.3486 13.1681 14.3752 13.2334 14.376H18.3622V17.7733H12.2485V14.1277C12.2485 14.0951 12.2421 14.0628 12.2296 14.0327C12.2171 14.0026 12.1988 13.9752 12.1758 13.9522C12.1527 13.9291 12.1254 13.9108 12.0952 13.8984C12.0651 13.8859 12.0328 13.8795 12.0002 13.8795H8.94352V10.4822H14.5845C14.7098 10.4824 14.8299 10.5322 14.9184 10.6207C15.007 10.7093 15.0568 10.8294 15.057 10.9547ZM8.69524 17.7733H5.63853V14.376H11.752V17.7733H8.69524ZM2.3335 10.4822H8.44697V13.8795H2.3335V10.4822ZM11.752 7.06083V9.98567H5.63853V6.58839H11.2795C11.4048 6.58853 11.5248 6.63836 11.6134 6.72692C11.702 6.81549 11.7518 6.93557 11.752 7.06083ZM2.3335 6.58817H5.14194V9.98545H2.3335V6.58817ZM2.3335 18.2696H4.18975C4.2556 18.2696 4.31875 18.2435 4.36531 18.1969C4.41187 18.1503 4.43803 18.0872 4.43803 18.0213C4.43803 17.9555 4.41187 17.8923 4.36531 17.8458C4.31875 17.7992 4.2556 17.7731 4.18975 17.7731H2.3335V14.376H5.14194V18.0216C5.14195 18.0874 5.16812 18.1506 5.21469 18.1971C5.26125 18.2437 5.32441 18.2698 5.39026 18.2698H15.057V21.6671H8.94352V19.2761C8.94352 19.2102 8.91736 19.1471 8.8708 19.1005C8.82424 19.054 8.76109 19.0278 8.69524 19.0278C8.6294 19.0278 8.56625 19.054 8.51969 19.1005C8.47313 19.1471 8.44697 19.2102 8.44697 19.2761V21.6671H2.3335V18.2696ZM21.667 21.6669H15.5537V18.2698H21.667V21.6669Z" fill="#EF652F" stroke="#EF652F" stroke-width="0.3"/>
<path d="M10.5239 7.54967C10.5301 7.56475 10.5378 7.57915 10.5469 7.59264C10.5561 7.60616 10.5665 7.61883 10.5779 7.63049C10.5894 7.64214 10.6021 7.65254 10.6158 7.66152C10.6294 7.67052 10.6437 7.6782 10.6588 7.68446C10.6739 7.69052 10.6894 7.69531 10.7053 7.69877C10.7454 7.7063 10.7867 7.70402 10.8257 7.69213C10.8647 7.68025 10.9003 7.6591 10.9294 7.63049C10.9408 7.61898 10.951 7.60629 10.9598 7.59264C10.9691 7.57927 10.9768 7.56485 10.9828 7.54967C10.989 7.53488 10.9938 7.51951 10.997 7.50378C11.0003 7.48762 11.0019 7.47119 11.002 7.45471C11.0019 7.41803 10.9937 7.38183 10.978 7.3487C10.9623 7.31557 10.9394 7.28633 10.911 7.26307C10.8827 7.23982 10.8495 7.22313 10.814 7.2142C10.7784 7.20527 10.7413 7.20432 10.7053 7.21142C10.6893 7.21457 10.6738 7.21935 10.6588 7.22569C10.6436 7.23172 10.6292 7.23943 10.6158 7.24867C10.602 7.25744 10.5892 7.26785 10.5779 7.2797C10.5317 7.32624 10.5056 7.3891 10.5053 7.45471C10.5051 7.4712 10.5067 7.48767 10.5103 7.50378C10.5133 7.51949 10.5179 7.53486 10.5239 7.54967ZM10.6158 8.6837C10.6294 8.6925 10.6438 8.7 10.6588 8.70609C10.6738 8.71241 10.6894 8.71719 10.7053 8.72035C10.7494 8.72924 10.7951 8.72595 10.8374 8.71085C10.8798 8.69575 10.9172 8.66939 10.9457 8.63462C10.9743 8.59985 10.9928 8.55797 10.9993 8.51348C11.0058 8.46898 11.0001 8.42355 10.9828 8.38206C10.9766 8.367 10.9689 8.3526 10.9598 8.33909C10.9509 8.32554 10.9407 8.31287 10.9294 8.30124C10.9004 8.27257 10.8648 8.25143 10.8257 8.23963C10.7867 8.22784 10.7453 8.22575 10.7053 8.23356C10.6894 8.23673 10.6738 8.24151 10.6588 8.24783C10.6436 8.25386 10.6292 8.26157 10.6158 8.27081C10.6021 8.27957 10.5894 8.28977 10.5779 8.30124C10.5666 8.31302 10.5562 8.32568 10.5469 8.33909C10.538 8.35273 10.5303 8.3671 10.5239 8.38206C10.5179 8.39709 10.5133 8.41268 10.5103 8.4286C10.5068 8.44449 10.5051 8.46074 10.5053 8.47702C10.5057 8.5428 10.5317 8.60582 10.5779 8.65268C10.5896 8.66415 10.6023 8.67453 10.6158 8.6837ZM3.31013 11.7493C3.27756 11.7493 3.2453 11.7557 3.2152 11.7681C3.1851 11.7805 3.15774 11.7988 3.13468 11.8218C3.11163 11.8448 3.09333 11.8721 3.08083 11.9021C3.06834 11.9322 3.06189 11.9645 3.06185 11.997C3.06172 12.0135 3.06316 12.0299 3.06615 12.046C3.06968 12.0617 3.07445 12.0771 3.08041 12.092C3.08671 12.1072 3.09441 12.1217 3.1034 12.1355C3.11253 12.1488 3.12292 12.1613 3.13443 12.1727C3.18093 12.2192 3.244 12.2453 3.30976 12.2453C3.37552 12.2453 3.43859 12.2192 3.48509 12.1727C3.4968 12.1615 3.50722 12.149 3.51616 12.1355C3.52539 12.1219 3.53308 12.1073 3.53911 12.092C3.54539 12.0772 3.55018 12.0618 3.55341 12.046C3.55662 12.0299 3.55828 12.0135 3.55836 11.997C3.55795 11.9314 3.53164 11.8685 3.48515 11.8221C3.43866 11.7758 3.37575 11.7496 3.31008 11.7493H3.31013ZM3.31013 12.771C3.27751 12.771 3.2452 12.7774 3.21506 12.7898C3.18492 12.8023 3.15753 12.8206 3.13447 12.8436C3.11141 12.8667 3.09312 12.8941 3.08066 12.9242C3.0682 12.9544 3.06181 12.9867 3.06185 13.0193C3.06178 13.0519 3.06816 13.0842 3.08062 13.1144C3.09308 13.1445 3.11138 13.1719 3.13447 13.195C3.16335 13.2238 3.19888 13.245 3.23792 13.2568C3.27696 13.2686 3.3183 13.2706 3.35828 13.2626C3.39827 13.2546 3.43568 13.2369 3.46719 13.211C3.4987 13.1851 3.52335 13.1519 3.53896 13.1142C3.55457 13.0765 3.56065 13.0356 3.55668 12.995C3.5527 12.9544 3.53879 12.9154 3.51617 12.8815C3.49354 12.8476 3.46291 12.8198 3.42697 12.8005C3.39104 12.7812 3.3509 12.7711 3.31013 12.771ZM10.8969 15.9366C10.8312 15.937 10.7681 15.9631 10.7213 16.0092C10.71 16.021 10.6996 16.0337 10.6903 16.0471C10.6816 16.0608 10.6741 16.0752 10.6679 16.0901C10.6616 16.1051 10.6568 16.1207 10.6537 16.1367C10.6504 16.1526 10.6488 16.1688 10.6487 16.1851C10.6487 16.2013 10.6504 16.2175 10.6537 16.2335C10.6568 16.2494 10.6616 16.265 10.6679 16.2799C10.674 16.2949 10.6815 16.3093 10.6903 16.3229C10.6994 16.3364 10.7098 16.3491 10.7213 16.3608C10.7502 16.3897 10.7857 16.4111 10.8248 16.423C10.8639 16.4349 10.9054 16.4369 10.9455 16.429C10.9856 16.421 11.0231 16.4033 11.0547 16.3774C11.0863 16.3515 11.111 16.3181 11.1267 16.2804C11.1423 16.2426 11.1484 16.2016 11.1444 16.1609C11.1404 16.1202 11.1264 16.0811 11.1037 16.0472C11.081 16.0132 11.0502 15.9853 11.0141 15.9661C10.9781 15.9468 10.9378 15.9368 10.8969 15.9368V15.9366ZM10.8969 14.9149C10.8311 14.915 10.768 14.9411 10.7213 14.9876C10.71 14.9991 10.6996 15.0116 10.6903 15.0248C10.6815 15.0386 10.674 15.0531 10.6679 15.0682C10.6617 15.083 10.6569 15.0984 10.6537 15.1141C10.6504 15.1303 10.6487 15.1467 10.6487 15.1632C10.6489 15.2289 10.6752 15.2919 10.7217 15.3385C10.7682 15.385 10.8312 15.4112 10.8969 15.4114C10.9132 15.4113 10.9294 15.4097 10.9454 15.4065C10.9613 15.4034 10.9769 15.3986 10.9919 15.3922C11.0069 15.3858 11.0212 15.3781 11.0349 15.3693C11.0484 15.3601 11.0611 15.3497 11.0727 15.3382C11.0842 15.3266 11.0946 15.3139 11.1038 15.3003C11.1127 15.2868 11.1202 15.2724 11.1261 15.2574C11.1323 15.2425 11.1371 15.2272 11.1404 15.2114C11.1436 15.1955 11.1452 15.1793 11.1453 15.163C11.1454 15.1304 11.139 15.0981 11.1265 15.0679C11.1141 15.0378 11.0958 15.0104 11.0727 14.9873C11.0496 14.9643 11.0223 14.946 10.9921 14.9335C10.962 14.9211 10.9297 14.9147 10.897 14.9147L10.8969 14.9149ZM20.565 15.2576C20.5711 15.2729 20.5788 15.2874 20.588 15.301C20.5969 15.3145 20.6073 15.327 20.619 15.3382C20.6304 15.3498 20.6429 15.3602 20.6563 15.3693C20.67 15.3783 20.6845 15.386 20.6997 15.3922C20.7146 15.3982 20.73 15.403 20.7456 15.4065C20.7618 15.4095 20.7782 15.411 20.7947 15.4108C20.8603 15.4107 20.9233 15.3846 20.9697 15.3381C21.0161 15.2917 21.0422 15.2288 21.0423 15.1631C21.0425 15.1467 21.041 15.1303 21.038 15.1141C21.0348 15.0984 21.03 15.083 21.0237 15.0682C21.0175 15.053 21.0098 15.0385 21.0008 15.0247C20.9917 15.0113 20.9813 14.9989 20.9697 14.9875C20.9585 14.9758 20.946 14.9654 20.9325 14.9565C20.9189 14.9472 20.9044 14.9395 20.8891 14.9335C20.8743 14.9272 20.8589 14.9224 20.8431 14.9192C20.8109 14.913 20.7779 14.913 20.7457 14.9192C20.7299 14.9224 20.7146 14.9272 20.6998 14.9335C20.6845 14.9395 20.6699 14.9472 20.6563 14.9565C20.6296 14.9749 20.6064 14.998 20.588 15.0247C20.5788 15.0383 20.5711 15.0529 20.5651 15.0682C20.5588 15.083 20.554 15.0984 20.5507 15.1142C20.5441 15.1463 20.5441 15.1795 20.5507 15.2116C20.554 15.2274 20.5588 15.2428 20.565 15.2576ZM16.8327 20.5975C16.8268 20.5823 16.8191 20.5679 16.8098 20.5545C16.801 20.5408 16.7908 20.5281 16.7794 20.5166C16.7327 20.4702 16.6696 20.444 16.6037 20.444C16.5378 20.444 16.4747 20.4702 16.428 20.5166C16.4165 20.5283 16.4062 20.541 16.397 20.5545C16.3881 20.568 16.3806 20.5824 16.3746 20.5975C16.3684 20.6123 16.3636 20.6277 16.3604 20.6434C16.3537 20.6755 16.3537 20.7087 16.3604 20.7408C16.3637 20.7567 16.3685 20.7723 16.3746 20.7874C16.3809 20.8023 16.3883 20.8167 16.397 20.8304C16.4062 20.8437 16.4165 20.8562 16.428 20.8676C16.451 20.8908 16.4784 20.9092 16.5085 20.9218C16.5387 20.9344 16.571 20.9408 16.6037 20.9408C16.6364 20.9408 16.6687 20.9344 16.6989 20.9218C16.729 20.9092 16.7564 20.8908 16.7794 20.8676C16.7908 20.8563 16.801 20.8438 16.8098 20.8304C16.8189 20.8169 16.8266 20.8025 16.8327 20.7874C16.8389 20.7723 16.8437 20.7567 16.847 20.7408C16.8536 20.7087 16.8536 20.6755 16.847 20.6434C16.8438 20.6277 16.839 20.6123 16.8327 20.5975ZM9.84052 14.9193C9.82478 14.9225 9.80941 14.9273 9.79463 14.9336C9.77954 14.9397 9.76514 14.9474 9.75166 14.9565C9.73797 14.9655 9.72528 14.9759 9.7138 14.9876C9.7023 14.999 9.69191 15.0114 9.68278 15.0248C9.67379 15.0386 9.6661 15.0531 9.65979 15.0683C9.65377 15.0831 9.64921 15.0985 9.64617 15.1142C9.63952 15.1463 9.63952 15.1795 9.64617 15.2116C9.64921 15.2274 9.65378 15.2427 9.65979 15.2576C9.6661 15.2727 9.67379 15.2873 9.68278 15.301C9.69191 15.3144 9.7023 15.3268 9.7138 15.3382C9.73692 15.3613 9.76435 15.3797 9.79454 15.3922C9.80932 15.3985 9.82469 15.4033 9.84043 15.4065C9.85659 15.4097 9.87302 15.4114 9.8895 15.4115C9.92204 15.4114 9.95425 15.4049 9.98428 15.3924C10.0143 15.3799 10.0416 15.3615 10.0645 15.3384C10.0762 15.3272 10.0866 15.3147 10.0955 15.3012C10.1048 15.2876 10.1125 15.2731 10.1185 15.2578C10.1248 15.243 10.1295 15.2276 10.1328 15.2119C10.136 15.1957 10.1377 15.1793 10.1378 15.1628C10.1377 15.1303 10.1312 15.0981 10.1187 15.068C10.1061 15.038 10.0878 15.0107 10.0647 14.9878C10.0358 14.959 10.0002 14.9377 9.96111 14.9257C9.92204 14.9138 9.88064 14.9116 9.84052 14.9193ZM3.35297 19.6616C3.34692 19.6463 3.33921 19.6317 3.32998 19.6181C3.32104 19.6046 3.31063 19.5921 3.29895 19.5809C3.26997 19.5521 3.23441 19.5309 3.19536 19.519C3.15632 19.5071 3.11496 19.5049 3.07487 19.5126C3.05914 19.5158 3.04377 19.5206 3.02898 19.5269C3.0139 19.533 2.9995 19.5407 2.98601 19.5499C2.97234 19.5588 2.95965 19.5692 2.94816 19.5809C2.90166 19.6274 2.87554 19.6904 2.87554 19.7562C2.87554 19.822 2.90166 19.885 2.94816 19.9315C2.95963 19.9432 2.97232 19.9536 2.98601 19.9626C2.9995 19.9717 3.0139 19.9794 3.02898 19.9856C3.04377 19.9918 3.05914 19.9966 3.07487 19.9999C3.09102 20.003 3.10744 20.0047 3.1239 20.0048C3.14016 20.0047 3.15638 20.003 3.17233 19.9999C3.18824 19.9965 3.20382 19.9917 3.21886 19.9856C3.23381 19.9792 3.24819 19.9715 3.26183 19.9626C3.27532 19.9536 3.2878 19.9432 3.29904 19.9315C3.31074 19.9203 3.32114 19.9079 3.33006 19.8943C3.33929 19.8807 3.347 19.8662 3.35305 19.8509C3.3593 19.8361 3.36408 19.8207 3.36732 19.805C3.37396 19.7728 3.37396 19.7396 3.36732 19.7075C3.36404 19.6918 3.35923 19.6764 3.35297 19.6616ZM3.35297 20.6831C3.3468 20.668 3.3391 20.6536 3.32998 20.6401C3.31203 20.613 3.28883 20.5898 3.26174 20.5719C3.24824 20.5628 3.23384 20.5551 3.21877 20.5489C3.20374 20.5427 3.18816 20.5379 3.17224 20.5346C3.14005 20.5284 3.10697 20.5284 3.07479 20.5346C3.05905 20.5378 3.04368 20.5426 3.0289 20.5489C3.0137 20.5548 2.99927 20.5625 2.98593 20.5719C2.97226 20.5806 2.95957 20.5908 2.94807 20.6022C2.93656 20.6139 2.92617 20.6266 2.91705 20.6401C2.90817 20.6538 2.90048 20.6682 2.89406 20.6831C2.88811 20.6982 2.88334 20.7138 2.87979 20.7297C2.87683 20.7456 2.87539 20.7618 2.8755 20.7781C2.87536 20.7943 2.8768 20.8105 2.87979 20.8265C2.88325 20.8424 2.88802 20.858 2.89406 20.8731C2.90036 20.8881 2.90806 20.9025 2.91705 20.916C2.92602 20.9297 2.93642 20.9424 2.94807 20.9539C2.95972 20.9654 2.97239 20.9758 2.98593 20.985C2.99941 20.9941 3.01381 21.0018 3.0289 21.0079C3.0437 21.014 3.05907 21.0186 3.07479 21.0216C3.09089 21.025 3.10734 21.0267 3.12381 21.0265C3.18944 21.0263 3.25233 21.0002 3.29887 20.9539C3.31071 20.9426 3.32112 20.9299 3.32989 20.916C3.33913 20.9026 3.34684 20.8882 3.35288 20.8731C3.35921 20.8581 3.36399 20.8425 3.36715 20.8265C3.37039 20.8106 3.37206 20.7943 3.37213 20.7781C3.37195 20.7455 3.36541 20.7132 3.35288 20.6831H3.35297ZM4.08292 20.5348C4.06695 20.5379 4.05136 20.5427 4.03638 20.549C4.02131 20.5552 4.00691 20.5629 3.99341 20.572C3.97986 20.5809 3.96719 20.5911 3.95556 20.6024C3.90905 20.649 3.88294 20.7122 3.88294 20.7781C3.88294 20.8439 3.90905 20.9071 3.95556 20.9537C3.96733 20.9651 3.97999 20.9755 3.99341 20.9848C4.00705 20.9935 4.02143 21.0009 4.03638 21.0071C4.05136 21.0135 4.06695 21.0183 4.08292 21.0214C4.09885 21.0246 4.11505 21.0262 4.1313 21.0263C4.16597 21.0264 4.20025 21.0192 4.23195 21.0051C4.26366 20.9911 4.29207 20.9706 4.31536 20.9449C4.33865 20.9193 4.35631 20.889 4.36719 20.8561C4.37808 20.8232 4.38195 20.7883 4.37855 20.7538C4.37515 20.7193 4.36457 20.6859 4.34748 20.6558C4.33039 20.6256 4.30717 20.5994 4.27932 20.5787C4.25147 20.5581 4.2196 20.5435 4.18578 20.536C4.15195 20.5284 4.11691 20.528 4.08292 20.5348ZM20.8902 3.89501C20.8328 3.89509 20.7773 3.91504 20.733 3.95147C20.6887 3.98791 20.6584 4.03856 20.6473 4.09482C20.6362 4.15107 20.6449 4.20945 20.672 4.26C20.6991 4.31055 20.7428 4.35015 20.7958 4.37206C20.8488 4.39397 20.9078 4.39683 20.9626 4.38015C21.0175 4.36348 21.0649 4.3283 21.0967 4.28061C21.1286 4.23292 21.1429 4.17566 21.1373 4.11859C21.1316 4.06152 21.1064 4.00817 21.0658 3.96762C21.019 3.92144 20.956 3.89538 20.8902 3.89501ZM20.8902 2.87334C20.8328 2.87342 20.7773 2.89337 20.733 2.92981C20.6887 2.96624 20.6584 3.0169 20.6473 3.07315C20.6362 3.12941 20.6449 3.18778 20.672 3.23833C20.6991 3.28888 20.7428 3.32848 20.7958 3.35039C20.8488 3.3723 20.9078 3.37516 20.9626 3.35848C21.0175 3.34181 21.0649 3.30663 21.0967 3.25894C21.1286 3.21125 21.1429 3.15399 21.1373 3.09692C21.1316 3.03986 21.1064 2.9865 21.0658 2.94596C21.0192 2.89951 20.956 2.87341 20.8902 2.87334ZM20.1119 3.02665C20.1059 3.01136 20.0982 2.99678 20.0889 2.98321C20.08 2.96966 20.0696 2.95716 20.0579 2.94596C20.035 2.92276 20.0076 2.90435 19.9776 2.89178C19.9475 2.87921 19.9152 2.87274 19.8825 2.87274C19.8499 2.87274 19.8176 2.87921 19.7875 2.89178C19.7575 2.90435 19.7301 2.92276 19.7072 2.94596C19.6957 2.95734 19.6853 2.96982 19.6761 2.98321C19.6672 2.99694 19.6595 3.01149 19.6532 3.02665C19.6471 3.04147 19.6426 3.05686 19.6395 3.07258C19.6329 3.10473 19.6329 3.13789 19.6395 3.17004C19.6427 3.18593 19.6472 3.20151 19.6532 3.21657C19.6596 3.23153 19.6673 3.2459 19.6761 3.25954C19.6853 3.27292 19.6957 3.2854 19.7072 3.29679C19.7303 3.31988 19.7577 3.33817 19.7878 3.35063C19.8179 3.3631 19.8503 3.36948 19.8829 3.36941C19.8991 3.36954 19.9153 3.3681 19.9313 3.36512C19.9472 3.3618 19.9628 3.35703 19.9778 3.35085C19.9929 3.34469 20.0073 3.337 20.0208 3.3279C20.0475 3.30947 20.0706 3.28634 20.089 3.25963C20.0982 3.24615 20.1059 3.23175 20.112 3.21666C20.1182 3.20162 20.123 3.18604 20.1263 3.17012C20.1329 3.13798 20.1329 3.10481 20.1263 3.07267C20.123 3.05689 20.1182 3.04147 20.1119 3.02665Z" fill="#EF652F" stroke="#EF652F" stroke-width="0.3"/>
<path d="M21.1942 1.83612H16.0256C15.7687 1.83642 15.5224 1.93861 15.3408 2.12027C15.1591 2.30194 15.0569 2.54824 15.0566 2.80515V5.25764C15.0569 5.51454 15.1591 5.76084 15.3408 5.9425C15.5224 6.12416 15.7687 6.22634 16.0256 6.22662H21.1942C21.4511 6.22634 21.6974 6.12416 21.879 5.9425C22.0607 5.76085 22.1629 5.51454 22.1632 5.25764V2.80515C22.1629 2.54824 22.0607 2.30193 21.879 2.12027C21.6974 1.93861 21.4511 1.83642 21.1942 1.83612ZM21.6668 5.25751C21.6667 5.38284 21.6169 5.50301 21.5283 5.59164C21.4397 5.68026 21.3195 5.73008 21.1942 5.73016H16.0256C15.9003 5.73007 15.7801 5.68025 15.6915 5.59163C15.6029 5.503 15.5531 5.38284 15.553 5.25751V2.80515C15.5531 2.67986 15.603 2.55975 15.6916 2.47117C15.7802 2.3826 15.9003 2.3328 16.0256 2.33271H21.1942C21.3195 2.33279 21.4397 2.38261 21.5283 2.47124C21.6169 2.55986 21.6667 2.68003 21.6668 2.80537V5.25751Z" fill="#EF652F" stroke="#EF652F" stroke-width="0.3"/>
</g>
<defs>
<clipPath id="clip0_606_3688">
<rect width="22" height="22" fill="white" transform="translate(1 1)"/>
</clipPath>
</defs>
</svg>
