<svg width="22" height="22" viewBox="0 0 22 22" fill="none" xmlns="http://www.w3.org/2000/svg">
<path d="M9.97823 0.818988C10.3449 0.0753112 11.4053 0.0753112 11.772 0.818988L14.1351 5.61144C14.4251 6.19967 14.9851 6.60831 15.6338 6.70507L20.8967 7.49013C21.7118 7.61171 22.0382 8.61169 21.4518 9.19073L17.6379 12.9569C17.1747 13.4143 16.9631 14.0684 17.0706 14.7104L17.9583 20.0103C18.0949 20.8262 17.2383 21.4457 16.5063 21.0604L11.8066 18.5869C11.2235 18.28 10.5267 18.28 9.94362 18.5869L5.24398 21.0604C4.51195 21.4457 3.65532 20.8262 3.79197 20.0103L4.67963 14.7104C4.78715 14.0684 4.57553 13.4143 4.11238 12.9569L0.29844 9.19073C-0.287948 8.61169 0.0384585 7.61171 0.853542 7.49013L6.11645 6.70507C6.76511 6.60831 7.32512 6.19967 7.61517 5.61144L9.97823 0.818988Z" fill="#DBE0E4"/>
<mask id="mask0_101_12857" style="mask-type:alpha" maskUnits="userSpaceOnUse" x="0" y="0" width="22" height="22">
<path d="M9.97823 0.818988C10.3449 0.0753112 11.4053 0.0753112 11.772 0.818988L14.1351 5.61144C14.4251 6.19967 14.9851 6.60831 15.6338 6.70507L20.8967 7.49013C21.7118 7.61171 22.0382 8.61169 21.4518 9.19073L17.6379 12.9569C17.1747 13.4143 16.9631 14.0684 17.0706 14.7104L17.9583 20.0103C18.0949 20.8262 17.2383 21.4457 16.5063 21.0604L11.8066 18.5869C11.2235 18.28 10.5267 18.28 9.94362 18.5869L5.24398 21.0604C4.51195 21.4457 3.65532 20.8262 3.79197 20.0103L4.67963 14.7104C4.78715 14.0684 4.57553 13.4143 4.11238 12.9569L0.29844 9.19073C-0.287948 8.61169 0.0384585 7.61171 0.853542 7.49013L6.11645 6.70507C6.76511 6.60831 7.32512 6.19967 7.61517 5.61144L9.97823 0.818988Z" fill="#DBE0E4"/>
</mask>
<g mask="url(#mask0_101_12857)">
<rect width="11" height="22" fill="#FFCE4C"/>
</g>
</svg>
