<svg width="20" height="20" viewBox="0 0 20 20" fill="none" xmlns="http://www.w3.org/2000/svg">
<path fill-rule="evenodd" clip-rule="evenodd" d="M20 10C20 4.47715 15.5228 3.91405e-07 10 8.74228e-07C4.47715 1.35705e-06 3.91405e-07 4.47715 8.74228e-07 10C1.35705e-06 15.5228 4.47715 20 10 20C15.5228 20 20 15.5228 20 10ZM12.1893 10.75L10.4697 12.4697C10.1768 12.7626 10.1768 13.2374 10.4697 13.5303C10.7626 13.8232 11.2374 13.8232 11.5303 13.5303L13.8232 11.2374C14.5066 10.554 14.5066 9.44598 13.8232 8.76256L11.5303 6.46967C11.2374 6.17678 10.7626 6.17678 10.4697 6.46967C10.1768 6.76256 10.1768 7.23744 10.4697 7.53033L12.1893 9.25L6 9.25C5.58579 9.25 5.25 9.58579 5.25 10C5.25 10.4142 5.58579 10.75 6 10.75L12.1893 10.75Z" fill="#EF652F"/>
</svg>
