<svg width="49" height="48" viewBox="0 0 49 48" fill="none" xmlns="http://www.w3.org/2000/svg">
<circle cx="24.5" cy="24" r="24" fill="#08A2DE"/>
<path d="M32.0641 15.7591C28.8979 16.9491 15.322 22.0525 11.5709 23.4434C9.05533 24.3343 10.528 25.1696 10.528 25.1696C10.528 25.1696 12.6754 25.8378 14.5163 26.3389C16.3569 26.8401 17.3386 26.2834 17.3386 26.2834L25.9899 20.9934C29.0577 19.1002 28.3215 20.6592 27.5851 21.3276C25.9899 22.7755 23.3515 25.0583 21.1427 26.8959C20.161 27.6754 20.6517 28.3436 21.0814 28.6777C22.6766 29.9029 27.0331 32.4086 27.2783 32.5756C28.5745 33.4084 31.1241 34.6071 31.5118 32.0745L33.0458 23.3322C33.5367 20.3811 34.0275 17.6525 34.0887 16.873C34.2729 14.9795 32.0641 15.7591 32.0641 15.7591Z" fill="white"/>
</svg>
