<svg width="24" height="24" viewBox="0 0 24 24" fill="none" xmlns="http://www.w3.org/2000/svg">
<path d="M21 5.73077C20.325 6.07692 19.65 6.19231 18.8625 6.30769C19.65 5.84615 20.2125 5.15385 20.4375 4.23077C19.7625 4.69231 18.975 4.92308 18.075 5.15385C17.4 4.46154 16.3875 4 15.375 4C13.0125 4 11.2125 6.30769 11.775 8.61538C8.7375 8.5 6.0375 7 4.125 4.69231C3.1125 6.42308 3.675 8.61538 5.25 9.76923C4.6875 9.76923 4.125 9.53846 3.5625 9.30769C3.5625 11.0385 4.8 12.6538 6.4875 13.1154C5.925 13.2308 5.3625 13.3462 4.8 13.2308C5.25 14.7308 6.6 15.8846 8.2875 15.8846C6.9375 16.9231 4.9125 17.5 3 17.2692C4.6875 18.3077 6.6 19 8.625 19C15.4875 19 19.3125 13.1154 19.0875 7.69231C19.875 7.23077 20.55 6.53846 21 5.73077Z" fill="#B5B5B5"/>
</svg>
