<svg width="48" height="48" viewBox="0 0 48 48" fill="none" xmlns="http://www.w3.org/2000/svg">
<circle cx="24" cy="24" r="24" fill="#7460F3"/>
<path fill-rule="evenodd" clip-rule="evenodd" d="M24.2749 14.3246C29.3982 15.1123 31.761 17.5487 32.4134 22.7088C32.4739 23.1855 32.2964 23.9026 32.9764 23.9158C33.6871 23.9295 33.5158 23.2228 33.5217 22.7457C33.582 17.8856 29.3445 13.3803 24.4231 13.214C24.0517 13.2675 23.2834 12.9579 23.2355 13.7903C23.2037 14.3513 23.8506 14.2592 24.2749 14.3246Z" fill="white"/>
<path fill-rule="evenodd" clip-rule="evenodd" d="M32.1815 28.3117C30.462 27.0987 28.2999 24.7774 26.6151 27.363C26.0528 28.2143 25.2657 28.2514 24.4426 27.8781C22.1736 26.8492 20.4217 25.2642 19.3953 22.9579C18.185 20.0933 21.1481 20.6313 21.0931 18.6341C21.0342 17.547 18.3943 13.9134 17.3518 13.5299C16.9203 13.3711 16.4907 13.3815 16.0518 13.529C13.6073 14.3509 12.5948 16.3614 13.5645 18.7419C16.4574 25.844 21.5482 30.7882 28.5562 33.8058C28.9558 33.9776 29.3996 34.0463 29.6244 34.1081C31.22 34.1242 33.0889 32.5869 33.6287 31.0613C34.1484 29.5935 33.0503 29.0111 32.1815 28.3117Z" fill="white"/>
<path fill-rule="evenodd" clip-rule="evenodd" d="M25.2815 15.7354C24.7887 15.676 24.1381 15.4438 24.023 16.1278C23.9027 16.8455 24.6278 16.7727 25.0938 16.8769C28.2581 17.584 29.3598 18.7359 29.8808 21.8745C29.957 22.3322 29.8058 23.0444 30.5834 22.9263C31.1596 22.8384 30.9516 22.228 30.9998 21.8714C31.0254 18.858 28.4431 16.1152 25.2815 15.7354Z" fill="white"/>
<path fill-rule="evenodd" clip-rule="evenodd" d="M25.581 18.1875C25.252 18.1957 24.9292 18.2313 24.8082 18.5827C24.6267 19.1082 25.0087 19.2334 25.3975 19.2959C26.6955 19.5043 27.3786 20.2697 27.5084 21.5642C27.5435 21.9155 27.7665 22.2003 28.1058 22.1601C28.5761 22.104 28.6187 21.6854 28.6041 21.2878C28.6273 19.8335 26.9836 18.1527 25.581 18.1875Z" fill="white"/>
</svg>
