<svg width="48" height="48" viewBox="0 0 48 48" fill="none" xmlns="http://www.w3.org/2000/svg">
<path d="M24 48C37.2548 48 48 37.2548 48 24C48 10.7452 37.2548 0 24 0C10.7452 0 0 10.7452 0 24C0 37.2548 10.7452 48 24 48Z" fill="#25D266"/>
<path fill-rule="evenodd" clip-rule="evenodd" d="M24.648 34.6041H24.6433C22.7433 34.6034 20.8764 34.129 19.2182 33.2289L13.2002 34.8L14.8107 28.9455C13.8172 27.2321 13.2945 25.2885 13.2953 23.2972C13.2979 17.068 18.3905 12 24.6478 12C27.6847 12.0013 30.535 13.1779 32.6784 15.3134C34.8217 17.4489 36.0014 20.2874 36.0002 23.3062C35.9977 29.5341 30.9071 34.6015 24.648 34.6041ZM19.4971 31.1836L19.8416 31.387C21.2903 32.2427 22.951 32.6954 24.6441 32.696H24.648C29.8485 32.696 34.0813 28.4834 34.0834 23.3056C34.0844 20.7964 33.1039 18.4371 31.3225 16.6621C29.541 14.8871 27.1719 13.9091 24.6516 13.9082C19.447 13.9082 15.2142 18.1205 15.2121 23.298C15.2114 25.0723 15.7102 26.8003 16.6547 28.2954L16.8791 28.6507L15.9259 32.1159L19.4971 31.1836ZM29.9787 25.7386C30.1765 25.8337 30.3102 25.898 30.3672 25.9928C30.4381 26.1105 30.4381 26.6758 30.2018 27.3352C29.9653 27.9947 28.8321 28.5965 28.2871 28.6775C27.7984 28.7502 27.18 28.7806 26.5005 28.5656C26.0885 28.4356 25.5602 28.2619 24.8834 27.971C22.2242 26.8282 20.4271 24.2632 20.0874 23.7784C20.0636 23.7445 20.047 23.7207 20.0377 23.7084L20.0355 23.7053C19.8854 23.506 18.8795 22.1704 18.8795 20.7881C18.8795 19.4877 19.5213 18.8062 19.8167 18.4925C19.837 18.471 19.8556 18.4512 19.8722 18.4331C20.1323 18.1505 20.4396 18.0798 20.6287 18.0798C20.8177 18.0798 21.0071 18.0815 21.1724 18.0898C21.1927 18.0909 21.214 18.0907 21.2359 18.0905C21.4011 18.0896 21.6073 18.0884 21.8106 18.5744C21.8888 18.7614 22.0032 19.0387 22.1239 19.3312C22.368 19.9225 22.6377 20.576 22.6851 20.6705C22.7561 20.8118 22.8033 20.9766 22.7088 21.1651C22.6946 21.1933 22.6815 21.22 22.6689 21.2455C22.5979 21.3898 22.5457 21.4959 22.4251 21.636C22.3778 21.691 22.3288 21.7504 22.2798 21.8098C22.1821 21.9281 22.0846 22.0463 21.9997 22.1306C21.8576 22.2713 21.7098 22.424 21.8753 22.7067C22.0407 22.9893 22.61 23.9137 23.4532 24.6623C24.3598 25.467 25.1476 25.8071 25.5469 25.9794C25.6249 26.0131 25.688 26.0404 25.7344 26.0635C26.0179 26.2048 26.1834 26.1811 26.3489 25.9928C26.5144 25.8044 27.058 25.1684 27.247 24.8859C27.4361 24.6034 27.6253 24.6504 27.8852 24.7446C28.1454 24.8389 29.5399 25.5217 29.8236 25.6631C29.8789 25.6906 29.9307 25.7155 29.9787 25.7386Z" fill="#FDFDFD"/>
</svg>
