<svg width="24" height="24" viewBox="0 0 24 24" fill="none" xmlns="http://www.w3.org/2000/svg">
<path d="M12.8002 18C6.65035 18 3.14386 13.5036 3 6.00961H6.09291C6.19181 11.5052 8.45754 13.8303 10.2557 14.3106V6.00961H13.1598V10.7462C14.9311 10.5444 16.8012 8.38271 17.4306 6H20.3257C20.0896 7.2334 19.6181 8.40153 18.9405 9.43141C18.2629 10.4613 17.3938 11.3308 16.3876 11.9856C17.5105 12.5828 18.5022 13.4277 19.2972 14.4644C20.0923 15.5011 20.6726 16.7061 21 18H17.8082C17.1249 15.723 15.4166 13.9552 13.1598 13.715V18H12.8092H12.8002Z" fill="#B5B5B5"/>
</svg>
