<svg width="69" height="24" viewBox="0 0 69 24" fill="none" xmlns="http://www.w3.org/2000/svg">
<path d="M63.6278 8.03341H66.5707C66.1985 5.02091 64.1065 3.43745 61.199 3.43745C58.2562 3.43745 56.2883 5.07888 56.2883 7.89824C56.2883 11.1038 58.8234 11.8182 60.1708 12.108C61.9081 12.4749 63.6101 12.5135 63.6101 14.1355C63.6101 15.2363 62.7591 15.777 61.5536 15.777C60.0644 15.777 59.0717 14.9659 58.8234 13.4984H55.916C56.0933 16.6653 58.203 18.3646 61.3055 18.3646C64.1774 18.3646 66.5352 16.9357 66.5352 13.846C66.5352 10.5245 63.8228 9.92587 61.9259 9.61687C60.6317 9.40449 59.2134 9.21135 59.2134 7.72442C59.2134 6.68165 59.9403 6.04443 61.1636 6.04443C62.5819 6.04443 63.4327 6.91345 63.6278 8.03341Z" fill="white"/>
<path d="M54.3019 3.92017H51.5186V17.9204H54.3019V3.92017Z" fill="white"/>
<path d="M43.1164 13.0348H46.7507C46.1834 14.5411 44.9069 15.2555 43.4355 15.2555C40.8472 15.2555 39.6417 13.0734 39.6417 10.9106C39.6417 8.72849 40.7763 6.50781 43.4178 6.50781C45.0311 6.50781 46.2365 7.31886 46.6975 8.76714L49.6935 8.76715C49.1795 5.50371 46.5557 3.63057 43.4533 3.63057C39.624 3.63057 36.752 6.46916 36.752 10.9493C36.752 15.4873 39.8721 18.1715 43.4355 18.1715C46.9457 18.1715 49.6935 15.6804 49.6935 11.7797V10.6403H43.1164V13.0348Z" fill="white"/>
<path d="M30.3868 3.63057C27.1957 3.63057 24.8378 5.81262 24.8556 9.44303H27.7276C27.6921 7.85957 28.6139 6.41128 30.2449 6.41128C31.6632 6.41128 32.4964 7.49269 32.4964 8.72851C32.4964 9.96441 31.6632 10.6596 30.1208 11.4128C28.0112 12.4362 26.5043 13.0928 24.9619 13.6721V17.9204H35.7053V15.0624H28.3299C28.3299 15.0624 28.3544 15.0541 28.3665 15.0501C29.621 14.636 30.5634 14.1862 31.681 13.6528C34.0743 12.4942 35.4393 11.0458 35.4393 8.57409C35.4394 5.54226 33.3829 3.63057 30.3868 3.63057Z" fill="white"/>
<path d="M17.3037 12.9962C13.6871 13.0155 13.1021 15.3907 12.9071 17.399L12.8185 18.2872H12.0916L12.0029 17.399C11.808 15.3907 11.2052 13.0155 7.7127 12.9962C7.12768 11.683 6.87948 10.6209 6.87948 9.42363C6.87948 6.43053 9.13099 3.63041 12.4638 3.63041C15.7968 3.63041 18.0128 6.41112 18.0128 9.44303C18.0128 10.6209 17.9065 11.683 17.3037 12.9962ZM12.4285 0C6.93272 0 2.42969 4.90495 2.42969 10.9105C2.42969 16.9355 6.93272 21.8404 12.4285 21.8404C17.9773 21.8404 22.4626 16.9355 22.4626 10.9105C22.4626 4.90497 17.9773 0 12.4285 0Z" fill="white"/>
</svg>
