<svg width="92" height="74" viewBox="0 0 92 74" fill="none" xmlns="http://www.w3.org/2000/svg">
<path fill-rule="evenodd" clip-rule="evenodd" d="M54.9642 0.197725C55.3355 0.215441 55.6875 0.36601 55.9492 0.629987L72.4204 17.0869C72.9964 17.6601 72.9964 18.5924 72.4204 19.1655L67.6161 23.9697H85.579C86.3886 23.9667 87.0474 24.6204 87.0507 25.4299V55.621H90.243C91.0492 55.6243 91.7015 56.2779 91.7031 57.0841V65.599C91.7002 66.404 91.048 67.0559 90.243 67.0592H83.781V72.3415C83.7781 73.1465 83.126 73.7984 82.3209 73.8017H68.6984C67.8888 73.8047 67.23 73.151 67.2268 72.3415V67.0592H52.9945V72.3415C52.9915 73.151 52.3324 73.8047 51.5229 73.8017H37.9004C37.0908 73.8047 36.432 73.151 36.4288 72.3415V67.0592H22.1993V72.3415C22.1964 73.151 21.5373 73.8047 20.7277 73.8017H7.10237C6.29729 73.7984 5.64545 73.1465 5.64222 72.3415V67.0592H1.75704C0.951958 67.0559 0.300102 66.404 0.296875 65.599V57.0841C0.298347 56.2779 0.950844 55.6244 1.75704 55.6211H4.96082V4.77297C4.95789 3.96342 5.61142 3.30469 6.42097 3.30142H35.2492C36.0587 3.30469 36.7124 3.96342 36.7094 4.77297V13.6371H50.203L46.5669 10.0009C45.9985 9.42914 45.9985 8.5056 46.5669 7.93384L53.882 0.630122C54.1675 0.342671 54.5593 0.186209 54.9642 0.197725ZM54.9098 3.73354L49.6847 8.96151L60.2036 19.4891C60.7798 20.0622 60.7798 20.9945 60.2036 21.5677C59.6319 22.1362 58.7083 22.1362 58.1365 21.5677L55.116 18.5471V23.9697H63.4618L69.3025 18.1262L54.9098 3.73354ZM33.7776 6.23304H7.89257V13.6369H33.7776V6.23304ZM52.1842 16.5687H35.2492H20.9968V23.9697H52.1842L52.1842 16.5687ZM18.065 16.5687H7.89257V23.9697H18.065V16.5687ZM84.116 26.893H68.4378V34.294H84.116L84.116 26.893ZM36.7093 26.893V34.294H65.5061V26.893C55.9072 26.893 46.3082 26.893 36.7093 26.893ZM33.7776 26.893H7.89257V34.294H33.7776V26.893ZM84.116 37.2258H55.0845V44.6268H84.116L84.116 37.2258ZM52.1527 37.2258H20.9968V44.6268H52.1527L52.1527 37.2258ZM18.065 37.2258H7.89257V44.6268H18.065V37.2258ZM84.116 47.5614H68.4378V55.621H74.7881C75.5955 55.6226 76.2496 56.2767 76.2512 57.084C76.2541 57.8947 75.5988 58.5541 74.7881 58.5557H3.22866V64.1386H88.7713V58.5557H80.4799C79.6659 58.5589 79.0051 57.898 79.0083 57.084C79.0098 56.2733 79.6692 55.6178 80.4799 55.621H84.116L84.116 47.5614ZM65.5061 47.5614H36.7093V55.621H65.5061L65.5061 47.5614ZM33.7776 47.5614H7.89257V55.621H33.7776V47.5614ZM80.8492 67.059H70.1586V70.8696H80.8492L80.8492 67.059ZM50.0627 67.059H39.3605V70.8696H50.0627L50.0627 67.059ZM19.2675 67.059H8.56538V70.8696H19.2675V67.059Z" fill="#A5A5AD"/>
<mask id="mask0_1815_96652" style="mask-type:alpha" maskUnits="userSpaceOnUse" x="0" y="0" width="92" height="74">
<path fill-rule="evenodd" clip-rule="evenodd" d="M54.9642 0.197725C55.3355 0.215441 55.6875 0.36601 55.9492 0.629987L72.4204 17.0869C72.9964 17.6601 72.9964 18.5924 72.4204 19.1655L67.6161 23.9697H85.579C86.3886 23.9667 87.0474 24.6204 87.0507 25.4299V55.621H90.243C91.0492 55.6243 91.7015 56.2779 91.7031 57.0841V65.599C91.7002 66.404 91.048 67.0559 90.243 67.0592H83.781V72.3415C83.7781 73.1465 83.126 73.7984 82.3209 73.8017H68.6984C67.8888 73.8047 67.23 73.151 67.2268 72.3415V67.0592H52.9945V72.3415C52.9915 73.151 52.3324 73.8047 51.5229 73.8017H37.9004C37.0908 73.8047 36.432 73.151 36.4288 72.3415V67.0592H22.1993V72.3415C22.1964 73.151 21.5373 73.8047 20.7277 73.8017H7.10237C6.29729 73.7984 5.64545 73.1465 5.64222 72.3415V67.0592H1.75704C0.951958 67.0559 0.300102 66.404 0.296875 65.599V57.0841C0.298347 56.2779 0.950844 55.6244 1.75704 55.6211H4.96082V4.77297C4.95789 3.96342 5.61142 3.30469 6.42097 3.30142H35.2492C36.0587 3.30469 36.7124 3.96342 36.7094 4.77297V13.6371H50.203L46.5669 10.0009C45.9985 9.42914 45.9985 8.5056 46.5669 7.93384L53.882 0.630122C54.1675 0.342671 54.5593 0.186209 54.9642 0.197725ZM54.9098 3.73354L49.6847 8.96151L60.2036 19.4891C60.7798 20.0622 60.7798 20.9945 60.2036 21.5677C59.6319 22.1362 58.7083 22.1362 58.1365 21.5677L55.116 18.5471V23.9697H63.4618L69.3025 18.1262L54.9098 3.73354ZM33.7776 6.23304H7.89257V13.6369H33.7776V6.23304ZM52.1842 16.5687H35.2492H20.9968V23.9697H52.1842L52.1842 16.5687ZM18.065 16.5687H7.89257V23.9697H18.065V16.5687ZM84.116 26.893H68.4378V34.294H84.116L84.116 26.893ZM36.7093 26.893V34.294H65.5061V26.893C55.9072 26.893 46.3082 26.893 36.7093 26.893ZM33.7776 26.893H7.89257V34.294H33.7776V26.893ZM84.116 37.2258H55.0845V44.6268H84.116L84.116 37.2258ZM52.1527 37.2258H20.9968V44.6268H52.1527L52.1527 37.2258ZM18.065 37.2258H7.89257V44.6268H18.065V37.2258ZM84.116 47.5614H68.4378V55.621H74.7881C75.5955 55.6226 76.2496 56.2767 76.2512 57.084C76.2541 57.8947 75.5988 58.5541 74.7881 58.5557H3.22866V64.1386H88.7713V58.5557H80.4799C79.6659 58.5589 79.0051 57.898 79.0083 57.084C79.0098 56.2733 79.6692 55.6178 80.4799 55.621H84.116L84.116 47.5614ZM65.5061 47.5614H36.7093V55.621H65.5061L65.5061 47.5614ZM33.7776 47.5614H7.89257V55.621H33.7776V47.5614ZM80.8492 67.059H70.1586V70.8696H80.8492L80.8492 67.059ZM50.0627 67.059H39.3605V70.8696H50.0627L50.0627 67.059ZM19.2675 67.059H8.56538V70.8696H19.2675V67.059Z" fill="black"/>
</mask>
<g mask="url(#mask0_1815_96652)">
<path d="M58.5007 22.4154L46.0007 9.91536L44.959 6.79036L51.209 0.540365L55.3757 -1.54297L68.9173 10.957L76.209 18.2487L71.0007 23.457H61.6257L58.5007 22.4154Z" fill="#EF652F"/>
</g>
</svg>
