<svg width="142" height="47" viewBox="0 0 142 47" fill="none" xmlns="http://www.w3.org/2000/svg">
<path d="M100.601 30.9967C103.406 30.1783 105.05 27.7673 105.05 24.4721C105.05 22.4515 104.5 20.8621 103.39 19.6744C100.152 16.212 94.6524 17.7083 93.2814 22.4246C92.7195 24.3572 92.7204 24.5047 93.3069 26.614C93.8319 28.5023 95.4908 30.4586 96.8081 30.7429C97.1989 30.8272 97.7744 31.0063 98.0871 31.1409C98.878 31.4814 98.9551 31.477 100.601 30.9967H100.601ZM95.5129 46.2462C92.5659 45.2835 89.9021 43.0147 88.5059 40.2784C88.1054 39.4933 88.3073 39.3309 90.9454 38.3177C92.8031 37.6041 93.3976 37.525 93.3976 37.9911C93.3976 38.6678 95.1652 40.4855 96.3773 41.0552C98.802 42.195 101.99 41.5115 103.504 39.5276C104.202 38.6122 104.824 36.1778 104.71 34.805L104.65 34.0756L103.5 34.8771C101.864 36.0173 99.16 36.5188 96.9502 36.0918C94.3066 35.5808 92.6326 34.7004 90.8595 32.8883C88.9871 30.9748 88.1809 29.4246 87.5937 26.6086C86.4177 20.9681 89.9974 14.9328 95.5826 13.1396C98.4202 12.2286 102.399 12.8152 104.077 14.3921L104.723 14.9983L104.815 14.1875L104.908 13.3768H107.466H110.024L110.107 24.7452C110.194 36.6893 110.064 38.3221 108.825 40.8624C107.598 43.3777 105.219 45.3586 102.297 46.2976C100.452 46.8905 97.4149 46.8675 95.5129 46.2462Z" fill="#4286F5"/>
<path d="M51.981 30.092C54.1812 28.5673 55.2551 25.2533 54.479 22.384C53.8321 19.9927 51.0806 17.7817 48.7517 17.7817C44.9952 17.7817 42.2626 20.5547 42.2479 24.3815C42.2362 27.432 44.1246 30.2455 46.6142 30.8866C48.2289 31.3024 50.7792 30.9248 51.981 30.092ZM46.2823 36.0811C41.7811 35.2789 38.5157 32.3412 36.9775 27.7101C36.267 25.571 36.5037 21.8659 37.485 19.7675C39.5975 15.2501 43.6156 12.6571 48.4784 12.6729C57.7443 12.7031 63.2253 22.1122 58.8716 30.5146C57.6266 32.9174 54.0716 35.4795 51.2669 35.9954C48.7577 36.4568 48.4227 36.4626 46.2823 36.0811Z" fill="#EA4235"/>
<path d="M126.649 23.3735C127.698 22.9066 127.311 23.0334 127.495 23.0284C127.68 23.0234 128.863 22.5139 129.876 22.0449C130.889 21.576 131.921 21.1923 132.169 21.1923C132.418 21.1923 130.956 21.8217 130.956 21.6978C130.956 21.5738 133.325 20.5022 134.186 20.2097C135.707 19.6926 135.737 19.6623 135.252 19.127C133.82 17.545 130.926 17.2296 129 18.4457C127.438 19.4316 126.193 21.1056 125.952 22.5423C125.736 23.8312 125.632 23.8257 126.649 23.3735ZM129.637 36.0765C125.143 35.022 122.197 32.1844 120.706 27.4735C120.301 26.1966 120.315 22.4894 120.728 21.2125C122.471 15.832 126.432 12.666 131.419 12.666C134.267 12.666 136.619 13.6331 138.662 15.6438C140.123 17.0815 142 20.2242 142 21.2332C142 21.8858 141.659 22.083 138.163 23.4561C135.351 24.5603 133.994 25.1165 131.768 26.0774C131.377 26.2461 130.802 26.4879 130.489 26.6148C130.177 26.7417 129.345 27.0917 128.642 27.3926C127.938 27.6936 127.184 27.9947 126.965 28.0618C126.282 28.2713 128.632 30.4664 129.921 30.8224C132.453 31.522 134.682 31.0408 136.448 29.4128C137.113 28.7994 137.789 28.2975 137.948 28.2975C138.43 28.2975 141.989 30.6904 141.995 31.0177C142.004 31.6226 139.51 33.9023 137.86 34.7955C136.348 35.6147 132.88 36.5894 131.768 36.5079C131.534 36.4907 130.574 36.2966 129.637 36.0765H129.637Z" fill="#EA4235"/>
<path d="M14.8151 35.9575C11.3463 35.4031 7.9981 33.567 5.06987 30.6134C3.01443 28.5402 1.66311 26.3494 0.530587 23.2542C-0.189479 21.2862 -0.172848 14.7992 0.55737 12.8083C2.866 6.51376 7.28537 2.29023 13.5361 0.404637C15.5223 -0.19452 21.8377 -0.110477 23.6256 0.538901C26.3361 1.52341 29.6545 3.44057 30.5816 4.55759C30.9212 4.96686 30.748 5.24529 29.1524 6.85525C28.1537 7.86283 27.2691 8.68706 27.1864 8.68687C27.1037 8.68668 26.6641 8.36667 26.2096 7.97574C23.8548 5.95064 19.3272 4.87961 15.8975 5.53634C11.9917 6.2842 8.75238 8.75756 6.93258 12.3814C6.0218 14.195 5.43038 14.3005 5.43038 18.0661C5.43038 21.6437 6.05659 22.014 6.77439 23.5459C7.19779 24.4496 8.27315 25.9531 9.1641 26.8872C12.4153 30.2957 17.1674 31.6366 21.7135 30.4283C24.264 29.7503 25.3567 29.1671 26.9485 27.6338C28.3406 26.2929 29.2478 24.6313 29.5698 22.8326L29.7596 21.7727L23.9926 21.6957L18.2256 21.6187V18.9649V16.311L26.4676 16.3346C31.0008 16.3476 34.788 16.3589 34.8836 16.3596C34.9793 16.3605 35.1952 17.046 35.3633 17.8834C35.9964 21.0359 34.8347 25.8107 32.6051 29.2194C30.7689 32.0268 28.8033 33.542 24.6203 35.3747C22.8853 36.1349 17.8116 36.4364 14.8151 35.9575V35.9575Z" fill="#4185F4"/>
<path d="M75.8631 30.8125C77.1855 30.4813 78.9597 28.8155 79.6101 27.2945C79.8706 26.6852 80.2897 25.5124 80.2278 24.3405C80.1394 22.6673 79.7839 21.4779 79.4334 21.0534C77.9528 19.2601 77.1774 18.6026 76.0912 18.2194C73.6584 17.361 71.3943 17.8306 69.5637 19.5731C65.9846 22.9802 67.3577 29.3056 72.0191 30.8841C73.3549 31.3365 73.8045 31.3281 75.8631 30.8125ZM70.9595 35.9647C67.9415 35.3279 64.789 32.9276 63.3593 30.1778C60.977 25.5961 61.5823 20.2831 64.9056 16.6045C69.6471 11.3564 78.0054 11.3587 82.8354 16.6096C86.9909 21.1271 86.56 29.3276 81.9604 33.2651C79.7679 35.1419 77.6336 35.9871 74.7591 36.117C73.3649 36.18 71.6551 36.1114 70.9595 35.9647V35.9647Z" fill="#FABC05"/>
<path d="M113.01 18.3505V0.993164L115.781 1.07451L118.552 1.15585V18.3505V35.5452L115.781 35.6265L113.01 35.7079V18.3505Z" fill="#34A853"/>
</svg>
