<svg width="53" height="96" viewBox="0 0 53 96" fill="none" xmlns="http://www.w3.org/2000/svg">
<g clip-path="url(#clip0_8_3725)">
<path fill-rule="evenodd" clip-rule="evenodd" d="M39.6992 27.4862C39.6992 26.4656 39.6992 26.4656 39.631 25.445C39.631 24.9688 39.4946 24.4925 39.29 24.1523C38.9489 24.2884 38.6079 24.4245 38.2668 24.4925C32.5371 25.5811 29.3994 25.9213 27.1484 25.9893C27.012 25.9893 26.057 25.9893 25.4431 25.9893C24.6246 25.9893 23.8743 25.9893 23.0557 25.9213C22.7147 25.9213 22.4418 25.8533 22.169 25.8533C22.1008 26.4656 22.169 27.146 22.169 27.8944C22.3054 29.5953 22.7147 31.7044 23.1239 33.4054C23.8743 36.3309 25.9206 40.209 28.8537 41.5698C30.7636 42.6584 33.3556 42.1141 34.9927 40.7533C37.3801 39.1885 38.5396 36.7392 39.1535 34.0857C39.4264 32.9971 39.5628 32.1807 39.631 30.956C39.8357 29.7314 39.6992 28.5067 39.6992 27.4862Z" fill="white"/>
<path fill-rule="evenodd" clip-rule="evenodd" d="M22.5091 33.9491C22.0999 34.0852 21.7588 33.5409 21.3496 32.3163C21.1449 31.5679 20.8039 30.8875 20.4628 30.2752C20.2582 29.935 19.3032 27.8939 21.1449 28.0299C21.7588 28.8464 22.4409 32.5204 22.5091 33.9491Z" fill="white"/>
<path fill-rule="evenodd" clip-rule="evenodd" d="M37.925 40.891C36.4926 42.5239 34.037 43.5444 31.9907 43.6125C29.8079 43.6805 27.0113 42.2517 25.1696 39.7344C24.6239 41.1631 23.7371 45.4495 23.7371 45.4495C19.9855 47.6947 18.3485 50.4842 17.8028 51.5728C18.0074 51.6408 18.1438 51.7089 18.4849 51.8449C16.3703 52.3892 15.279 53.0696 13.7783 54.0902C16.7114 55.2468 18.0074 57.0157 20.3266 58.1724C21.2815 56.9477 23.4643 54.9066 26.5338 54.1582C24.4875 55.587 23.9418 56.0632 22.6458 57.9683C27.4205 54.9746 30.2172 54.7025 34.1052 55.1107C34.9237 52.7975 36.288 50.8244 37.5158 48.5792C37.584 44.9052 37.7204 43.7485 37.925 40.891Z" fill="white"/>
<path fill-rule="evenodd" clip-rule="evenodd" d="M41.063 26.2617C42.9047 25.8535 42.2226 28.0307 42.0861 28.3709C41.8133 29.0512 41.6087 29.7996 41.5404 30.548C41.404 31.8407 41.063 32.4531 40.6537 32.317C40.5173 30.9563 40.6537 27.1462 41.063 26.2617Z" fill="white"/>
<path fill-rule="evenodd" clip-rule="evenodd" d="M17.8028 21.4998C17.2571 20.5473 17.1207 19.5948 17.53 18.7103C17.53 18.7103 18.0074 19.7989 19.5763 21.0236C19.4399 20.6834 19.3717 20.2752 19.3717 19.8669C18.4167 18.9825 17.9392 17.8939 17.871 16.9414C17.9392 16.6012 18.0756 16.1249 18.4849 15.8528C18.8942 10.6139 20.8723 6.25958 25.7835 4.89884C26.261 4.0824 27.4888 3.87829 28.3755 3.74221C29.6715 3.5381 30.5583 3.67418 31.104 4.0824C36.6291 4.76276 39.5621 8.43676 40.7899 13.3354C41.131 13.5395 41.3356 13.6756 41.3356 14.2199C41.4038 14.9003 40.9946 16.3971 40.176 17.4857C40.2442 17.6898 40.3125 17.8939 40.4489 18.2341C40.8581 17.6898 41.9495 16.0569 42.0177 15.5806C42.3588 16.3971 42.427 17.2815 41.9495 18.2341C41.2674 19.5948 40.5853 20.4793 40.2442 21.4318C39.9032 22.5884 39.3575 23.2007 37.7887 23.5409C33.2185 24.5615 28.1709 25.514 22.714 25.3099C20.9405 25.2419 19.7809 24.6295 19.167 23.5409C18.9624 22.7245 18.2121 22.2482 17.8028 21.4998Z" fill="white"/>
<path d="M7.4353 47.0822C10.6412 44.0206 13.3697 42.3197 16.8484 41.7073C16.0981 37.353 17.2577 34.5635 19.0994 32.3863C16.9166 29.3246 17.1213 26.399 18.3491 24.2219C18.2809 24.1538 18.2809 24.0858 18.2127 24.0178C17.8034 23.3374 17.5305 23.2013 17.1213 22.4529C16.371 21.2282 16.2345 19.4593 16.8484 18.1666C16.5756 16.5337 16.8484 15.9894 17.5988 15.309C17.667 14.3565 17.7352 13.404 17.9398 12.5195L0.136719 18.915V52.7973C1.15988 52.0489 2.31947 51.2325 3.75191 50.28C5.04792 49.3275 6.34393 48.0348 7.4353 47.0822Z" fill="#EF652F"/>
<path d="M38.335 5.23884C40.0402 6.87172 41.268 9.11694 42.223 12.2466C42.7687 12.859 43.2462 12.927 43.519 15.2403C44.2693 16.8051 43.7918 18.1658 43.1779 19.3905C43.9283 21.2275 44.7468 24.017 44.474 27.3508C49.3851 34.1545 46.9295 41.9107 45.8382 44.4961C48.4984 45.1084 50.4083 46.2651 52.7957 49.4628C52.8639 49.5308 52.9321 49.5989 52.9321 49.6669V0L38.335 5.23884Z" fill="#EF652F"/>
<path fill-rule="evenodd" clip-rule="evenodd" d="M27.8301 36.1962C27.9665 36.4684 28.3076 36.9446 28.3758 37.0807C28.9897 37.9652 29.9446 38.9177 31.5817 38.8497C33.9691 38.7136 34.7876 36.1282 34.924 35.4478C33.0823 35.1757 29.1943 35.72 27.8301 36.1962ZM33.2188 37.0127C32.2638 38.0332 30.8314 38.1013 29.74 37.3529C29.6036 37.2168 29.0579 36.7405 28.8532 36.4003C30.7632 36.0601 32.0592 35.9921 33.9691 35.856C33.8327 36.2643 33.4234 36.8086 33.2188 37.0127Z" fill="#7A130C"/>
<path fill-rule="evenodd" clip-rule="evenodd" d="M32.9458 32.5912C32.673 32.183 32.5366 32.0469 32.5366 32.0469C32.5366 32.0469 32.8094 32.5912 32.8094 32.8633C32.8094 32.9314 32.8094 32.9314 32.8094 32.9994C32.673 32.9314 32.5366 32.9994 32.3319 33.0674C31.7862 33.2715 31.5816 33.3396 31.1723 33.4076C30.8313 33.4756 30.422 33.4076 29.9445 33.2715C29.8081 33.2035 29.6035 33.2035 29.5353 33.2715C29.4671 33.0674 29.4671 32.3871 29.4671 32.3871C29.4671 32.3871 29.3306 32.5912 29.2624 33.0674C29.1942 33.4076 29.1942 33.7478 29.7399 33.7478C29.8763 33.7478 30.1492 33.7478 30.2856 33.6798C30.5584 33.7478 30.7631 33.9519 31.1723 33.9519H31.2405C31.5816 33.8839 31.8544 33.6798 32.0591 33.5437C32.1273 33.6117 32.2637 33.6117 32.3319 33.6117C32.3319 33.6117 32.3319 33.6117 32.4001 33.6117C32.6048 33.6117 32.8094 33.4756 32.9458 33.4076C33.2187 33.0674 33.1505 32.8633 32.9458 32.5912Z" fill="#7A130C"/>
<path fill-rule="evenodd" clip-rule="evenodd" d="M33.0138 27.1458C34.5144 25.785 36.97 25.785 38.1978 26.1933C37.8567 25.717 36.6289 25.3088 35.1965 25.649C33.8323 25.9211 33.1502 26.4654 32.8091 26.6695C32.6045 26.8736 33.0138 27.1458 33.0138 27.1458Z" fill="#7A130C"/>
<path fill-rule="evenodd" clip-rule="evenodd" d="M28.5119 27.6233C26.8748 26.5348 24.4192 26.8749 23.1914 27.4873C23.4643 26.943 24.6238 26.3987 26.0563 26.4667C27.4887 26.5348 28.239 26.943 28.5801 27.1471C28.8529 27.2832 28.5119 27.6233 28.5119 27.6233Z" fill="#7A130C"/>
<path fill-rule="evenodd" clip-rule="evenodd" d="M40.3128 14.2218C40.1082 14.9021 39.3579 15.7186 38.0619 15.9907C33.2871 16.8072 31.9911 10.7519 31.5818 7.69022C31.309 6.39752 31.3772 6.5336 31.0361 4.96875C31.4454 5.71716 31.8547 6.5336 32.0593 7.55415C34.0374 19.1885 40.3128 14.2218 40.3128 14.2218Z" fill="#7A130C"/>
<path fill-rule="evenodd" clip-rule="evenodd" d="M37.6525 19.1875C37.6525 19.1875 37.5843 19.1875 37.5843 19.2555C32.6731 20.6843 27.4208 21.5008 22.4414 21.2966C27.7619 22.1811 34.4466 21.0245 37.8571 19.9359C37.7889 19.6638 37.7207 19.3916 37.6525 19.1875Z" fill="#7A130C"/>
<path fill-rule="evenodd" clip-rule="evenodd" d="M25.8516 15.1029C26.9429 12.6535 26.6701 10.0681 26.6019 9.04759C26.4655 8.57133 26.329 8.16311 26.0562 7.55078C26.1926 11.0207 26.1244 12.7896 24.5556 15.7832C23.5324 17.4842 22.1682 18.0965 20.4629 17.8243C22.0317 18.4367 24.0781 18.0965 25.1695 16.2595C25.5105 15.8513 25.7151 15.4431 25.8516 15.1029Z" fill="#7A130C"/>
<path d="M23.1236 83.3455H25.6474L21.1455 73.0039H20.2588L15.7568 83.3455H18.4171L18.8945 82.1208H22.6462L23.1236 83.3455ZM19.7813 80.0117L20.8045 77.5624L21.8276 80.0117H19.7813Z" fill="black"/>
<path d="M50.4078 83.3455H52.9316L48.4297 73.0039H47.5429L43.041 83.3455H45.7012L46.1787 82.1208H49.9303L50.4078 83.3455ZM47.0655 80.0117L48.0886 77.5624L49.1118 80.0117H47.0655Z" fill="black"/>
<path d="M27.4209 83.3455H28.3076L32.7413 73.0039H30.2175L27.8301 78.8551L25.511 73.0039H22.9189L27.4209 83.3455Z" fill="black"/>
<path d="M6.07108 83.3455H8.86774L5.79824 78.4468C7.36709 77.4263 8.45847 75.6573 8.45847 73.6843V73.0039H6.07108V73.6843C6.07108 75.5213 4.57044 77.0181 2.72874 77.0181V73.0039H0.136719V83.3455H2.72874V79.3994C3.06979 79.3994 3.41085 79.3313 3.75191 79.3313L6.07108 83.3455Z" fill="black"/>
<path d="M39.6308 83.3455H42.4275L39.358 78.4468C40.9268 77.4263 42.0182 75.6573 42.0182 73.6843V73.0039H39.6308V73.6843C39.6308 75.5213 38.1302 77.0181 36.2885 77.0181V73.0039H33.7646V83.3455H36.2885V79.3994C36.6295 79.3994 36.9706 79.3313 37.3116 79.3313L39.6308 83.3455Z" fill="black"/>
<path d="M12.6869 81.3044V73.0039H10.1631V83.3455H14.5286L15.4153 81.3044H12.6869Z" fill="black"/>
<path d="M25.8517 85.3867C22.9186 85.3867 20.5312 87.768 20.5312 90.6936C20.5312 93.6192 22.9186 96.0005 25.8517 96.0005C28.7848 96.0005 31.1722 93.6192 31.1722 90.6936C31.1722 87.768 28.7848 85.3867 25.8517 85.3867ZM25.8517 93.4151C24.3511 93.4151 23.0551 92.1904 23.0551 90.6256C23.0551 89.1287 24.2829 87.836 25.8517 87.836C27.3524 87.836 28.6484 89.0607 28.6484 90.6256C28.6484 92.1904 27.4206 93.4151 25.8517 93.4151Z" fill="black"/>
<path d="M42.8365 85.4531H40.3127V90.9641C40.1763 92.3929 39.0167 93.4815 37.5843 93.4815C36.1518 93.4815 34.9241 92.3929 34.8558 90.9641V85.4531H32.332V90.9641C32.4685 93.7536 34.7876 95.9988 37.5843 95.9988C40.4491 95.9988 42.7001 93.7536 42.8365 90.9641V85.4531Z" fill="black"/>
<path d="M10.5045 89.9468H7.91248H5.32046V92.056H7.70785C7.23037 92.9404 6.34363 93.4847 5.25225 93.4847C3.75161 93.4847 2.4556 92.2601 2.4556 90.6952C2.4556 89.1984 3.6834 87.9057 5.25225 87.9057C5.79794 87.9057 6.27542 88.0418 6.7529 88.3139L8.45817 86.4089C7.57143 85.7285 6.48005 85.3203 5.32046 85.3203C2.38739 85.3203 0 87.7016 0 90.6272C0 93.5528 2.38739 95.9341 5.32046 95.9341C8.25354 95.9341 10.6409 93.5528 10.6409 90.6272C10.5727 90.4231 10.5727 90.1509 10.5045 89.9468Z" fill="black"/>
<path d="M17.5983 95.9988H20.3949L17.9393 92.1207C19.0307 91.5084 19.8492 90.3518 19.8492 88.991C19.8492 87.018 18.2804 85.4531 16.3705 85.4531H11.5957V95.9308H14.1195V92.4609H15.6202L17.5983 95.9988ZM17.2572 88.991C17.2572 89.6034 16.7797 90.1477 16.1658 90.2157H14.1195V87.7664H16.1658C16.7797 87.8344 17.2572 88.3107 17.2572 88.991Z" fill="black"/>
<path d="M52.659 88.991C52.659 87.018 51.0901 85.4531 49.1802 85.4531H44.4736V95.9308H46.9974V92.529H49.1802C51.1583 92.4609 52.659 90.8961 52.659 88.991ZM49.0438 90.1477H46.9974V87.7664H49.0438C49.6577 87.8344 50.1352 88.3107 50.1352 88.991C50.1352 89.6034 49.6577 90.0796 49.0438 90.1477Z" fill="black"/>
<path fill-rule="evenodd" clip-rule="evenodd" d="M26.398 27.7578C24.9656 27.7578 24.2834 28.5062 23.9424 28.9144C24.147 29.1866 24.3516 29.3907 24.9655 29.5948C26.4662 29.935 27.0119 29.6628 28.3079 29.3227C28.4443 29.2546 28.6489 29.1866 28.6489 29.1185C28.6489 28.9825 27.8304 27.7578 26.398 27.7578ZM25.0338 28.9825C25.2384 28.6423 25.5112 28.4382 25.7159 28.3021C25.6477 28.4382 25.6477 28.5062 25.6477 28.6423C25.6477 28.9825 25.9205 29.3227 26.1933 29.4587C25.6477 29.3907 25.1702 29.1866 25.0338 28.9825ZM26.4662 28.7784C26.3298 28.7784 26.1933 28.7103 26.1933 28.5743C26.1933 28.4382 26.2616 28.3021 26.398 28.3021C26.5344 28.3021 26.6708 28.3701 26.6708 28.5062C26.6708 28.6423 26.6026 28.7784 26.4662 28.7784ZM27.8986 29.1866C27.6258 29.3227 27.3529 29.3907 27.0801 29.3907C27.4211 29.1866 27.6258 28.8464 27.5576 28.5062C27.5576 28.4382 27.5576 28.4382 27.5576 28.3701C27.8304 28.5062 28.035 28.7103 28.1715 28.9144C28.1715 28.9144 28.1715 29.1186 27.8986 29.1866Z" fill="#7A130C"/>
<path fill-rule="evenodd" clip-rule="evenodd" d="M35.0602 27.0096C33.6277 27.2138 33.082 28.5745 33.082 28.7106C33.082 28.8466 33.3549 28.8466 33.4913 28.8466C34.8555 28.9827 35.4012 29.1188 36.8336 28.5065C37.4475 28.2343 37.584 27.9622 37.7204 27.69C37.3111 27.4179 36.4926 26.8055 35.0602 27.0096ZM33.8324 28.7106C33.5595 28.6425 33.4913 28.5065 33.4913 28.5065C33.5595 28.3023 33.7641 28.0302 34.037 27.8261C34.037 27.8941 34.037 27.8941 34.037 27.9622C34.1052 28.3704 34.3098 28.6425 34.6509 28.7786C34.4463 28.7786 34.1734 28.7786 33.8324 28.7106ZM34.8555 28.0982C34.7191 28.0982 34.5827 27.9622 34.5827 27.8261C34.5827 27.69 34.7191 27.5539 34.8555 27.5539C34.9919 27.5539 35.1284 27.69 35.1284 27.8261C35.1284 27.9622 34.9919 28.0982 34.8555 28.0982ZM35.4694 28.6425C35.7423 28.4384 35.9469 28.1663 35.8787 27.7581C35.8787 27.622 35.8105 27.4859 35.7423 27.4179C36.0151 27.4859 36.288 27.69 36.5608 27.9622C36.4926 28.1663 36.1515 28.5065 35.4694 28.6425Z" fill="#7A130C"/>
<path d="M46.9294 48.308C49.0439 49.6007 50.8856 51.4377 53.0002 54.4313V49.8048C52.9319 49.7368 52.8637 49.6687 52.8637 49.6007C50.4763 46.403 48.5664 45.2463 45.9062 44.634C46.9976 42.0486 49.4532 34.2924 44.542 27.4887C44.8148 24.1549 43.9963 21.3654 43.246 19.5284C43.8599 18.3037 44.3373 16.943 43.587 15.3782C43.3142 12.9969 42.9049 12.9969 42.291 12.3845C41.3361 9.25485 40.1083 7.00963 38.403 5.37675C36.6977 3.8119 34.515 2.85938 31.6501 2.38313C30.6951 1.77079 29.3991 1.83883 28.3077 1.9749C27.1482 2.04294 25.9204 2.72331 25.1018 3.67583C20.7363 5.17264 18.6218 8.57448 17.8715 12.5887C17.6668 13.4731 17.5986 14.4256 17.5304 15.3782C16.7801 16.0585 16.5072 16.6028 16.7801 18.2357C16.1662 19.5284 16.3026 21.2974 17.0529 22.522C17.4622 23.2704 17.8032 23.4065 18.1443 24.0869C18.2125 24.1549 18.2125 24.223 18.2807 24.291C17.0529 26.4682 16.9165 29.3938 19.031 32.4554C17.1893 34.6326 15.9615 37.4221 16.7801 41.7765C13.3013 42.3888 10.5729 44.0897 7.36694 47.1514C6.34378 48.1039 4.97956 49.4646 3.68355 50.3491C2.31932 51.3016 1.15974 52.1181 0.0683594 52.8665V55.0436C1.36437 54.1592 2.72859 53.2747 4.29745 52.4582C6.41199 51.3016 7.50337 50.0089 8.3219 49.3286C12.0735 45.9267 15.2112 44.4299 20.5317 44.7701C18.1443 47.2874 16.9165 49.3966 16.0297 51.0295C13.6424 51.914 12.3464 52.7304 11.3914 53.6829C10.6411 53.7509 9.82254 54.0231 9.41328 54.1592C5.45703 57.4249 4.84313 60.4866 4.84313 64.5688C4.91135 65.3853 5.32061 66.6779 5.93451 68.1067L0.13657 68.3108V69.9437L53.0002 70.556V66.6779L48.089 66.814C46.2473 64.1606 44.8148 61.303 42.6321 59.5341C42.5639 59.8062 42.5639 60.0784 42.4956 60.3505C43.1778 61.235 44.2009 63.4802 44.9512 64.7729C44.7466 65.8615 43.1095 65.4533 42.0182 62.5277C42.0182 62.5277 42.0182 62.5277 42.0182 62.5957C40.9268 59.8062 38.8123 57.0167 36.4249 55.656C36.9706 53.2747 39.3579 48.4441 39.8354 47.4916C40.995 47.2194 43.6552 46.471 46.9294 48.308ZM42.0864 28.3732C41.8135 29.0536 41.6089 29.802 41.5407 30.5504C41.4043 31.8431 41.0632 32.4554 40.6539 32.3193C40.5175 30.9586 40.7222 27.1485 41.1314 26.2641C42.9049 25.8558 42.2228 27.965 42.0864 28.3732ZM19.3039 23.4065C18.8946 22.7261 18.2125 22.1818 17.8032 21.4334C17.2575 20.4809 17.1211 19.5284 17.5304 18.6439C17.5304 18.6439 18.0079 19.7325 19.5767 20.9572C19.4403 20.617 19.3721 20.2088 19.3721 19.8006C18.4171 18.9161 17.9397 17.8275 17.8715 16.875C17.9397 16.5348 18.0761 16.0585 18.4853 15.7864C18.8946 10.5475 20.8727 6.19319 25.7839 4.83245C26.2614 4.01601 27.4892 3.8119 28.376 3.67583C29.672 3.47171 30.5587 3.60779 31.1044 4.01601C36.6295 4.69638 39.5626 8.37037 40.7904 13.269C41.1314 13.4731 41.3361 13.6092 41.3361 14.1535C41.4043 14.8339 40.995 16.3307 40.1765 17.4193C40.2447 17.6234 40.3129 17.8275 40.4493 18.1677C40.8586 17.6234 41.95 15.9905 42.0182 15.5142C42.3592 16.3307 42.4274 17.2152 41.95 18.1677C41.2678 19.5284 40.5857 20.4129 40.2447 21.3654C39.9036 22.522 39.3579 23.1344 37.7891 23.4745C33.2189 24.4951 28.1713 25.4476 22.7144 25.2435C21.1456 25.1755 19.9178 24.4951 19.3039 23.4065ZM20.5317 30.2102C20.327 29.87 19.3721 27.8289 21.2138 27.965C21.7595 28.8495 22.4416 32.5235 22.5098 33.9522C22.1005 34.0883 21.7595 33.544 21.3502 32.3193C21.2138 31.5709 20.8727 30.8906 20.5317 30.2102ZM43.1095 66.9501L8.25369 68.0387C7.63979 67.0181 7.0941 65.9295 6.75304 64.7049C6.07093 62.4597 7.36694 57.0848 10.3 55.4519C12.4146 54.8395 14.8702 56.3363 17.5986 58.1733C19.2357 59.2619 20.5317 59.8743 22.1687 59.1939C25.9204 57.6971 32.4686 55.724 36.4249 58.5816C39.1533 60.4866 39.9718 65.1131 43.1095 66.9501ZM37.5844 48.6482C36.3567 50.9614 34.9924 52.8665 34.1739 55.1797C30.2177 54.7715 27.4892 55.0437 22.7144 58.0373C24.0104 56.1322 24.5561 55.656 26.6025 54.2272C23.533 54.9756 21.3502 57.0167 20.3953 58.2414C18.1443 57.0848 16.7801 55.3158 13.847 54.1592C15.3476 53.1386 16.439 52.4583 18.5536 51.914C18.2125 51.7779 18.0761 51.7098 17.8715 51.6418C18.3489 50.4852 20.0542 47.6957 23.8058 45.5185C23.8058 45.5185 24.6926 41.2322 25.2382 39.8034C27.0799 42.2527 29.8766 43.7495 32.0594 43.6815C34.0375 43.6135 36.5613 42.5929 37.9937 40.96C37.7209 43.6815 37.5844 44.9062 37.5844 48.6482ZM39.7672 30.9586C39.699 32.1833 39.5626 32.9997 39.2897 34.0883C38.6076 36.7417 37.5162 39.1911 35.1289 40.7559C33.4918 42.1166 30.8998 42.5929 28.9216 41.5723C25.9886 40.2116 24.0104 36.2655 23.1919 33.4079C22.7144 31.707 22.3734 29.6659 22.237 27.8969C22.1687 27.1485 22.1687 26.5362 22.237 25.8558C22.5098 25.9239 22.8509 25.9239 23.1237 25.9239C23.9422 25.9239 24.6926 25.9919 25.5111 25.9919C26.125 25.9919 27.0799 25.9919 27.2164 25.9919C29.5355 25.9239 32.605 25.5837 38.3348 24.4951C38.6758 24.4271 39.0169 24.291 39.3579 24.1549C39.5626 24.4951 39.6308 24.9714 39.699 25.4476C39.7672 26.4682 39.7672 26.4682 39.7672 27.4887C39.7672 28.5093 39.8354 29.7339 39.7672 30.9586Z" fill="#7A130C"/>
<path d="M36.3567 58.5791C32.4686 55.7215 25.9204 57.7626 22.1687 59.1914C20.5317 59.8718 19.2357 59.2594 17.5986 58.1708C14.8702 56.3338 12.4828 54.837 10.3 55.4494C7.36694 57.1503 6.07093 62.4571 6.75304 64.7024C7.0941 65.927 7.63979 67.0156 8.25369 68.0362L43.1095 66.9476C39.9718 65.1106 39.0851 60.4841 36.3567 58.5791ZM46.9294 48.3055C43.7234 46.4685 40.995 47.2169 39.9718 47.4891C39.4944 48.4416 37.107 53.3402 36.5613 55.6535C38.8805 57.0142 40.995 59.8037 42.1546 62.5932C42.1546 62.5932 42.1546 62.5932 42.1546 62.5252C43.1778 65.4508 44.883 65.927 45.0877 64.7704C44.3373 63.4097 43.246 61.2325 42.6321 60.348C42.7003 60.0759 42.7003 59.8718 42.7685 59.5316C45.0195 61.3686 46.4519 64.1581 48.2254 66.8115L53.1366 66.6754V54.3608C50.8856 51.4352 49.0439 49.5982 46.9294 48.3055ZM9.41328 54.0886C9.82254 53.9525 10.7093 53.6124 11.3914 53.6124C12.3464 52.6599 13.7106 51.8434 16.0297 50.9589C16.9165 49.326 18.1443 47.1489 20.5317 44.6995C15.2112 44.3594 12.0735 45.8562 8.3219 49.258C7.50337 50.0064 6.41199 51.2311 4.29745 52.3877C2.72859 53.2722 1.36437 54.0886 0.0683594 54.9731V68.2403L5.8663 68.0362C5.2524 66.6074 4.84313 65.3147 4.77492 64.5663C4.84313 60.4841 5.45703 57.4224 9.41328 54.0886Z" fill="white"/>
</g>
<defs>
<clipPath id="clip0_8_3725">
<rect width="53" height="96" fill="white"/>
</clipPath>
</defs>
</svg>
