<svg width="86" height="38" viewBox="0 0 86 38" fill="none" xmlns="http://www.w3.org/2000/svg">
<path d="M37.1724 17H41L34.1724 0H32.8276L26 17H30.0345L30.7586 14.9868H36.4483L37.1724 17ZM32.1034 11.5197L33.6552 7.49342L35.2069 11.5197H32.1034Z" fill="black"/>
<path d="M82.1724 17H86L79.1724 0H77.8276L71 17H75.0345L75.7586 14.9868H81.4483L82.1724 17ZM77.1034 11.5197L78.6552 7.49342L80.2069 11.5197H77.1034Z" fill="black"/>
<path d="M44.3333 17H45.7778L53 0H48.8889L45 9.61842L41.2222 0H37L44.3333 17Z" fill="black"/>
<path d="M9.51562 17H14L9.07812 8.94737C11.5938 7.26974 13.3438 4.36184 13.3438 1.11842V0H9.51562V1.11842C9.51562 4.13816 7.10938 6.59868 4.15625 6.59868V0H0V17H4.15625V10.5132C4.70312 10.5132 5.25 10.4013 5.79688 10.4013L9.51562 17Z" fill="black"/>
<path d="M65.1575 17H70L64.685 8.94737C67.4016 7.26974 69.2913 4.36184 69.2913 1.11842V0H65.1575V1.11842C65.1575 4.13816 62.5591 6.59868 59.3701 6.59868V0H55V17H59.3701V10.5132C59.9606 10.5132 60.5512 10.4013 61.1417 10.4013L65.1575 17Z" fill="black"/>
<path d="M20.8052 13.6447V0H16V17H24.3117L26 13.6447H20.8052Z" fill="black"/>
<path d="M42.5 21C37.8141 21 34 24.8141 34 29.5C34 34.1859 37.8141 38 42.5 38C47.1859 38 51 34.1859 51 29.5C51 24.8141 47.1859 21 42.5 21ZM42.5 33.859C40.1026 33.859 38.0321 31.8974 38.0321 29.391C38.0321 26.9936 39.9936 24.9231 42.5 24.9231C44.8974 24.9231 46.9679 26.8846 46.9679 29.391C46.9679 31.8974 45.0064 33.859 42.5 33.859Z" fill="black"/>
<path d="M70 21H65.6753V29.8839C65.4416 32.1871 63.4545 33.9419 61 33.9419C58.5455 33.9419 56.4416 32.1871 56.3247 29.8839V21H52V29.8839C52.2338 34.3806 56.2078 38 61 38C65.9091 38 69.7662 34.3806 70 29.8839V21Z" fill="black"/>
<path d="M16.7821 28.4103H12.641H8.5V31.7885H12.3141C11.5513 33.2051 10.1346 34.0769 8.39103 34.0769C5.99359 34.0769 3.92308 32.1154 3.92308 29.609C3.92308 27.2115 5.88462 25.141 8.39103 25.141C9.26282 25.141 10.0256 25.359 10.7885 25.7949L13.5128 22.7436C12.0962 21.6538 10.3526 21 8.5 21C3.8141 21 0 24.8141 0 29.5C0 34.1859 3.8141 38 8.5 38C13.1859 38 17 34.1859 17 29.5C16.891 29.1731 16.891 28.7372 16.7821 28.4103Z" fill="black"/>
<path d="M28.9147 38H34L29.5349 31.7484C31.5194 30.7613 33.0078 28.8968 33.0078 26.7032C33.0078 23.5226 30.155 21 26.6822 21H18V37.8903H22.5891V32.2968H25.3178L28.9147 38ZM28.2946 26.7032C28.2946 27.6903 27.4264 28.5677 26.3101 28.6774H22.5891V24.729H26.3101C27.4264 24.8387 28.2946 25.6065 28.2946 26.7032Z" fill="black"/>
<path d="M85 26.7403C85 23.539 82.5083 21 79.475 21H72V38H76.0083V32.4805H79.475C82.6167 32.3701 85 29.8312 85 26.7403ZM79.2583 28.6169H76.0083V24.7532H79.2583C80.2333 24.8636 80.9917 25.6364 80.9917 26.7403C80.9917 27.7338 80.2333 28.5065 79.2583 28.6169Z" fill="black"/>
</svg>
