<svg width="83" height="32" viewBox="0 0 83 32" fill="none" xmlns="http://www.w3.org/2000/svg">
<path d="M53.1535 16.3416H55.6806L51.1729 6H50.285L45.7772 16.3416H48.4409L48.919 15.1169H52.6754L53.1535 16.3416ZM49.8069 13.0078L50.8314 10.5585L51.8559 13.0078H49.8069Z" fill="black"/>
<path d="M80.473 16.3416H83.0001L78.4923 6H77.6044L73.0967 16.3416H75.7603L76.2384 15.1169H79.9949L80.473 16.3416ZM77.1263 13.0078L78.1508 10.5585L79.1753 13.0078H77.1263Z" fill="black"/>
<path d="M57.4564 16.3416H58.3442L62.7837 6H60.2566L57.8662 11.8512L55.544 6H52.9486L57.4564 16.3416Z" fill="black"/>
<path d="M36.0787 16.3416H38.879L35.8056 11.4429C37.3764 10.4224 38.4692 8.65343 38.4692 6.68037V6H36.0787V6.68037C36.0787 8.51736 34.5762 10.0142 32.7321 10.0142V6H30.1367V16.3416H32.7321V12.3955C33.0736 12.3955 33.4151 12.3274 33.7566 12.3274L36.0787 16.3416Z" fill="black"/>
<path d="M69.682 16.3416H72.4822L69.4088 11.4429C70.9796 10.4224 72.0724 8.65343 72.0724 6.68037V6H69.682V6.68037C69.682 8.51736 68.1794 10.0142 66.3353 10.0142V6H63.8082V16.3416H66.3353V12.3955C66.6768 12.3955 67.0183 12.3274 67.3598 12.3274L69.682 16.3416Z" fill="black"/>
<path d="M42.7033 14.3005V6H40.1763V16.3416H44.5474L45.4353 14.3005H42.7033Z" fill="black"/>
<path d="M55.8851 18.3828C52.9482 18.3828 50.5577 20.7641 50.5577 23.6897C50.5577 26.6153 52.9482 28.9966 55.8851 28.9966C58.8219 28.9966 61.2124 26.6153 61.2124 23.6897C61.2124 20.7641 58.8219 18.3828 55.8851 18.3828ZM55.8851 26.4112C54.3825 26.4112 53.0848 25.1865 53.0848 23.6216C53.0848 22.1248 54.3142 20.8321 55.8851 20.8321C57.3877 20.8321 58.6853 22.0568 58.6853 23.6216C58.6853 25.1865 57.456 26.4112 55.8851 26.4112Z" fill="black"/>
<path d="M72.8919 18.4507H70.3648V23.9617C70.2282 25.3904 69.0671 26.479 67.6328 26.479C66.1985 26.479 64.9691 25.3904 64.9008 23.9617V18.4507H62.3738V23.9617C62.5104 26.7512 64.8325 28.9964 67.6328 28.9964C70.5014 28.9964 72.7553 26.7512 72.8919 23.9617V18.4507Z" fill="black"/>
<path d="M40.5181 22.9414H37.9227H35.3273V25.0506H37.7178C37.2397 25.9351 36.3518 26.4794 35.259 26.4794C33.7565 26.4794 32.4588 25.2547 32.4588 23.6899C32.4588 22.193 33.6882 20.9003 35.259 20.9003C35.8054 20.9003 36.2835 21.0364 36.7616 21.3086L38.4691 19.4035C37.5812 18.7232 36.4884 18.3149 35.3273 18.3149C32.3905 18.3149 30 20.6962 30 23.6218C30 26.5474 32.3905 28.9287 35.3273 28.9287C38.2642 28.9287 40.6547 26.5474 40.6547 23.6218C40.5864 23.4177 40.5864 23.1456 40.5181 22.9414Z" fill="black"/>
<path d="M47.621 28.9964H50.4213L47.9625 25.1183C49.0553 24.506 49.8749 23.3493 49.8749 21.9886C49.8749 20.0155 48.304 18.4507 46.3917 18.4507H41.6107V28.9284H44.1378V25.4585H45.6404L47.621 28.9964ZM47.2795 21.9886C47.2795 22.6009 46.8015 23.1452 46.1868 23.2133H44.1378V20.7639H46.1868C46.8015 20.832 47.2795 21.3082 47.2795 21.9886Z" fill="black"/>
<path d="M82.727 21.9886C82.727 20.0155 81.1561 18.4507 79.2438 18.4507H74.5311V28.9284H77.0582V25.5265H79.2438C81.2244 25.4585 82.727 23.8936 82.727 21.9886ZM79.1072 23.1452H77.0582V20.7639H79.1072C79.7219 20.832 80.2 21.3082 80.2 21.9886C80.2 22.6009 79.7219 23.0772 79.1072 23.1452Z" fill="black"/>
<g clip-path="url(#clip0_1537_5778)">
<path fill-rule="evenodd" clip-rule="evenodd" d="M16.6984 13.244C16.6984 12.8147 16.6984 12.8147 16.6697 12.3854C16.6697 12.1851 16.6123 11.9848 16.5262 11.8417C16.3828 11.8989 16.2393 11.9561 16.0958 11.9848C13.6858 12.4427 12.3659 12.5857 11.4191 12.6144C11.3617 12.6144 10.9601 12.6144 10.7018 12.6144C10.3575 12.6144 10.0419 12.6144 9.69763 12.5857C9.55417 12.5857 9.43941 12.5571 9.32464 12.5571C9.29595 12.8147 9.32464 13.1009 9.32464 13.4157C9.38202 14.1311 9.55417 15.0183 9.72632 15.7338C10.0419 16.9643 10.9027 18.5956 12.1364 19.168C12.9398 19.6258 14.0301 19.3969 14.7187 18.8245C15.7229 18.1663 16.2106 17.1361 16.4688 16.0199C16.5836 15.562 16.641 15.2186 16.6697 14.7035C16.7558 14.1884 16.6984 13.6732 16.6984 13.244Z" fill="white"/>
<path fill-rule="evenodd" clip-rule="evenodd" d="M9.46735 15.9625C9.29521 16.0198 9.15175 15.7908 8.9796 15.2757C8.89352 14.9609 8.75007 14.6747 8.60661 14.4171C8.52053 14.274 8.11885 13.4155 8.89352 13.4727C9.15175 13.8162 9.43866 15.3615 9.46735 15.9625Z" fill="white"/>
<path fill-rule="evenodd" clip-rule="evenodd" d="M15.9512 18.8824C15.3487 19.5693 14.3158 19.9986 13.4551 20.0272C12.5369 20.0558 11.3606 19.4548 10.5859 18.3959C10.3564 18.9969 9.9834 20.7999 9.9834 20.7999C8.40536 21.7443 7.71677 22.9176 7.48723 23.3755C7.57331 23.4041 7.63069 23.4327 7.77415 23.49C6.88471 23.7189 6.42565 24.0051 5.79443 24.4344C7.02817 24.9209 7.57331 25.665 8.54882 26.1515C8.9505 25.6364 9.86863 24.7778 11.1598 24.463C10.299 25.064 10.0695 25.2643 9.52433 26.0656C11.5327 24.8064 12.7091 24.692 14.3445 24.8637C14.6888 23.8906 15.2626 23.0607 15.7791 22.1163C15.8078 20.5709 15.8652 20.0844 15.9512 18.8824Z" fill="white"/>
<path fill-rule="evenodd" clip-rule="evenodd" d="M17.2711 12.729C18.0457 12.5573 17.7588 13.473 17.7014 13.6161C17.5867 13.9023 17.5006 14.2171 17.4719 14.5319C17.4145 15.0757 17.2711 15.3332 17.0989 15.276C17.0415 14.7036 17.0989 13.101 17.2711 12.729Z" fill="white"/>
<path d="M3.12639 21.4867C4.4749 20.1988 5.62256 19.4834 7.08583 19.2258C6.77022 17.3942 7.25797 16.2209 8.03265 15.3051C7.11452 14.0173 7.20059 12.7867 7.71704 11.8709C7.68835 11.8423 7.68835 11.8137 7.65966 11.7851C7.48751 11.4989 7.37274 11.4416 7.20059 11.1268C6.88498 10.6117 6.8276 9.86764 7.08583 9.32389C6.97106 8.63706 7.08583 8.40811 7.40143 8.12193C7.43012 7.72127 7.45882 7.32062 7.54489 6.94858L0.0563965 9.6387V23.8906C0.48677 23.5758 0.974526 23.2324 1.57705 22.8317C2.12219 22.4311 2.66733 21.8873 3.12639 21.4867Z" fill="#EF652F"/>
<path d="M16.1252 3.8861C16.8425 4.57294 17.359 5.51734 17.7607 6.83378C17.9902 7.09135 18.191 7.11997 18.3058 8.09299C18.6214 8.75121 18.4206 9.32357 18.1623 9.8387C18.4779 10.6114 18.8222 11.7847 18.7075 13.187C20.7733 16.0489 19.7404 19.3113 19.2813 20.3988C20.4003 20.6564 21.2036 21.1429 22.2078 22.488C22.2365 22.5166 22.2652 22.5452 22.2652 22.5738V1.6825L16.1252 3.8861Z" fill="#EF652F"/>
<path fill-rule="evenodd" clip-rule="evenodd" d="M11.7067 16.9077C11.764 17.0222 11.9075 17.2225 11.9362 17.2798C12.1944 17.6518 12.5961 18.0524 13.2847 18.0238C14.2889 17.9666 14.6332 16.8791 14.6906 16.5929C13.9159 16.4784 12.2805 16.7074 11.7067 16.9077ZM13.9733 17.2511C13.5716 17.6804 12.9691 17.709 12.51 17.3942C12.4526 17.337 12.2231 17.1367 12.137 16.9936C12.9404 16.8505 13.4855 16.8219 14.2889 16.7646C14.2315 16.9363 14.0594 17.1653 13.9733 17.2511Z" fill="#7A130C"/>
<path fill-rule="evenodd" clip-rule="evenodd" d="M13.8578 15.3913C13.743 15.2196 13.6856 15.1624 13.6856 15.1624C13.6856 15.1624 13.8004 15.3913 13.8004 15.5058C13.8004 15.5344 13.8004 15.5344 13.8004 15.563C13.743 15.5344 13.6856 15.563 13.5996 15.5917C13.37 15.6775 13.284 15.7061 13.1118 15.7347C12.9683 15.7634 12.7962 15.7348 12.5954 15.6775C12.538 15.6489 12.4519 15.6489 12.4232 15.6775C12.3945 15.5917 12.3945 15.3055 12.3945 15.3055C12.3945 15.3055 12.3371 15.3913 12.3084 15.5917C12.2797 15.7347 12.2797 15.8778 12.5093 15.8778C12.5667 15.8778 12.6814 15.8778 12.7388 15.8492C12.8536 15.8778 12.9397 15.9637 13.1118 15.9637H13.1405C13.284 15.9351 13.3987 15.8492 13.4848 15.792C13.5135 15.8206 13.5709 15.8206 13.5996 15.8206C13.5996 15.8206 13.5996 15.8206 13.6283 15.8206C13.7143 15.8206 13.8004 15.7634 13.8578 15.7347C13.9725 15.5917 13.9439 15.5058 13.8578 15.3913Z" fill="#7A130C"/>
<path fill-rule="evenodd" clip-rule="evenodd" d="M13.887 13.1007C14.5182 12.5284 15.5511 12.5284 16.0676 12.7001C15.9241 12.4998 15.4077 12.328 14.8052 12.4711C14.2313 12.5856 13.9444 12.8146 13.801 12.9004C13.7149 12.9863 13.887 13.1007 13.887 13.1007Z" fill="#7A130C"/>
<path fill-rule="evenodd" clip-rule="evenodd" d="M11.9938 13.3016C11.3052 12.8437 10.2723 12.9868 9.75586 13.2444C9.87063 13.0154 10.3584 12.7865 10.9609 12.8151C11.5634 12.8437 11.879 13.0154 12.0225 13.1013C12.1373 13.1585 11.9938 13.3016 11.9938 13.3016Z" fill="#7A130C"/>
<path fill-rule="evenodd" clip-rule="evenodd" d="M16.9566 7.66461C16.8705 7.95079 16.5549 8.29421 16.0098 8.40868C14.0014 8.7521 13.4562 6.20507 13.2841 4.91725C13.1693 4.37351 13.198 4.43074 13.0546 3.77252C13.2267 4.08732 13.3989 4.43074 13.4849 4.86002C14.317 9.75374 16.9566 7.66461 16.9566 7.66461Z" fill="#7A130C"/>
<path fill-rule="evenodd" clip-rule="evenodd" d="M15.8369 9.75333C15.8369 9.75333 15.8082 9.75333 15.8082 9.78194C13.7425 10.3829 11.5332 10.7263 9.43872 10.6405C11.6767 11.0125 14.4884 10.526 15.923 10.0681C15.8943 9.95365 15.8656 9.83918 15.8369 9.75333Z" fill="#7A130C"/>
<path fill-rule="evenodd" clip-rule="evenodd" d="M10.8743 8.03518C11.3334 7.00492 11.2186 5.91743 11.1899 5.48815C11.1325 5.28782 11.0751 5.11612 10.9604 4.85855C11.0178 6.31808 10.9891 7.06216 10.3292 8.32136C9.89879 9.03682 9.32495 9.29438 8.60767 9.17991C9.26757 9.43747 10.1283 9.29438 10.5874 8.52169C10.7308 8.34998 10.8169 8.17827 10.8743 8.03518Z" fill="#7A130C"/>
<path fill-rule="evenodd" clip-rule="evenodd" d="M11.1039 13.3582C10.5014 13.3582 10.2145 13.673 10.071 13.8448C10.1571 13.9592 10.2432 14.0451 10.5014 14.1309C11.1326 14.274 11.3622 14.1596 11.9073 14.0165C11.9647 13.9878 12.0508 13.9592 12.0508 13.9306C12.0508 13.8734 11.7065 13.3582 11.1039 13.3582ZM10.5301 13.8734C10.6162 13.7303 10.731 13.6444 10.817 13.5872C10.7883 13.6444 10.7883 13.673 10.7883 13.7303C10.7883 13.8734 10.9031 14.0165 11.0179 14.0737C10.7883 14.0451 10.5875 13.9592 10.5301 13.8734ZM11.1326 13.7875C11.0752 13.7875 11.0179 13.7589 11.0179 13.7017C11.0179 13.6444 11.0466 13.5872 11.1039 13.5872C11.1613 13.5872 11.2187 13.6158 11.2187 13.673C11.2187 13.7303 11.19 13.7875 11.1326 13.7875ZM11.7352 13.9592C11.6204 14.0165 11.5056 14.0451 11.3909 14.0451C11.5343 13.9592 11.6204 13.8161 11.5917 13.673C11.5917 13.6444 11.5917 13.6444 11.5917 13.6158C11.7065 13.673 11.7925 13.7589 11.8499 13.8448C11.8499 13.8448 11.8499 13.9306 11.7352 13.9592Z" fill="#7A130C"/>
<path fill-rule="evenodd" clip-rule="evenodd" d="M14.7461 13.0436C14.1436 13.1294 13.9141 13.7018 13.9141 13.759C13.9141 13.8163 14.0288 13.8163 14.0862 13.8163C14.66 13.8735 14.8896 13.9307 15.4921 13.6732C15.7503 13.5587 15.8077 13.4442 15.8651 13.3298C15.6929 13.2153 15.3486 12.9577 14.7461 13.0436ZM14.2297 13.759C14.1149 13.7304 14.0862 13.6732 14.0862 13.6732C14.1149 13.5873 14.201 13.4728 14.3157 13.387C14.3157 13.4156 14.3157 13.4156 14.3157 13.4442C14.3444 13.6159 14.4305 13.7304 14.574 13.7876C14.4879 13.7876 14.3731 13.7876 14.2297 13.759ZM14.66 13.5015C14.6027 13.5015 14.5453 13.4442 14.5453 13.387C14.5453 13.3298 14.6027 13.2725 14.66 13.2725C14.7174 13.2725 14.7748 13.3298 14.7748 13.387C14.7748 13.4442 14.7174 13.5015 14.66 13.5015ZM14.9183 13.7304C15.033 13.6446 15.1191 13.5301 15.0904 13.3584C15.0904 13.3011 15.0617 13.2439 15.033 13.2153C15.1478 13.2439 15.2626 13.3298 15.3773 13.4442C15.3486 13.5301 15.2052 13.6732 14.9183 13.7304Z" fill="#7A130C"/>
<path d="M19.7392 22.0023C20.6286 22.546 21.4033 23.3187 22.2927 24.5779V22.6319C22.264 22.6032 22.2353 22.5746 22.2353 22.546C21.2311 21.201 20.4278 20.7144 19.3088 20.4569C19.7679 19.3694 20.8008 16.1069 18.735 13.2451C18.8497 11.8428 18.5054 10.6694 18.1898 9.89674C18.4481 9.38161 18.6489 8.80924 18.3333 8.15102C18.2185 7.14938 18.0464 7.14938 17.7881 6.89182C17.3865 5.57538 16.87 4.63098 16.1527 3.94414C15.4354 3.28592 14.5173 2.88526 13.3123 2.68493C12.9106 2.42737 12.3654 2.45599 11.9064 2.51322C11.4186 2.54184 10.9022 2.82802 10.5579 3.22868C8.72162 3.85828 7.83218 5.2892 7.51657 6.97767C7.4305 7.34971 7.4018 7.75037 7.37311 8.15102C7.05751 8.4372 6.94274 8.66615 7.05751 9.35299C6.79928 9.89674 6.85667 10.6408 7.17227 11.1559C7.34442 11.4707 7.48788 11.528 7.63134 11.8142C7.66003 11.8428 7.66003 11.8714 7.68872 11.9C7.17227 12.8158 7.11489 14.0464 8.00433 15.3342C7.22966 16.25 6.71321 17.4233 7.05751 19.2549C5.59424 19.5125 4.44658 20.2279 3.09807 21.5158C2.6677 21.9164 2.09387 22.4888 1.54873 22.8608C0.974897 23.2615 0.487141 23.6049 0.0280762 23.9197V24.8355C0.573216 24.4634 1.14705 24.0914 1.80695 23.748C2.69639 23.2615 3.15546 22.7177 3.49975 22.4315C5.07779 21.0006 6.3976 20.371 8.63554 20.5141C7.63134 21.573 7.11489 22.4602 6.7419 23.147C5.73769 23.519 5.19256 23.8624 4.79087 24.2631C4.47527 24.2917 4.13097 24.4062 3.95882 24.4634C2.29471 25.8371 2.03648 27.1249 2.03648 28.842C2.06518 29.1854 2.23733 29.7292 2.49555 30.3302L0.0567677 30.416V31.1029L22.2927 31.3604V29.7292L20.2269 29.7864C19.4523 28.6703 18.8497 27.4684 17.9316 26.7243C17.9029 26.8387 17.9029 26.9532 17.8742 27.0677C18.1611 27.4397 18.5915 28.3841 18.9071 28.9279C18.821 29.3858 18.1324 29.2141 17.6734 27.9835C17.6734 27.9835 17.6734 27.9835 17.6734 28.0121C17.2143 26.8387 16.3249 25.6654 15.3207 25.093C15.5502 24.0914 16.5544 22.0595 16.7553 21.6588C17.243 21.5444 18.362 21.2296 19.7392 22.0023ZM17.7021 13.6171C17.5873 13.9033 17.5012 14.2181 17.4725 14.5329C17.4152 15.0766 17.2717 15.3342 17.0995 15.277C17.0422 14.7046 17.1282 13.102 17.3004 12.7299C18.0464 12.5582 17.7595 13.4454 17.7021 13.6171ZM8.11909 11.528C7.94694 11.2418 7.66003 11.0128 7.48788 10.698C7.25835 10.2974 7.20096 9.89674 7.37311 9.5247C7.37311 9.5247 7.57395 9.98259 8.23386 10.4977C8.17648 10.3546 8.14779 10.1829 8.14779 10.0112C7.7461 9.63917 7.54526 9.18128 7.51657 8.78062C7.54526 8.63753 7.60265 8.4372 7.7748 8.32273C7.94694 6.11913 8.779 4.28756 10.8448 3.71519C11.0456 3.37177 11.5621 3.28592 11.9351 3.22868C12.4802 3.14283 12.8532 3.20006 13.0827 3.37177C15.4067 3.65795 16.6405 5.20334 17.1569 7.26386C17.3004 7.34971 17.3865 7.40695 17.3865 7.63589C17.4152 7.92208 17.243 8.55168 16.8987 9.00957C16.9274 9.09542 16.9561 9.18128 17.0135 9.32437C17.1856 9.09542 17.6447 8.40859 17.6734 8.20826C17.8168 8.55168 17.8455 8.92372 17.6447 9.32437C17.3578 9.89674 17.0709 10.2688 16.9274 10.6694C16.7839 11.1559 16.5544 11.4135 15.8945 11.5566C13.9722 11.9859 11.849 12.3865 9.55367 12.3007C8.89377 12.2721 8.37732 11.9859 8.11909 11.528ZM8.63554 14.3898C8.54947 14.2467 8.14779 13.3882 8.92246 13.4454C9.15199 13.8174 9.43891 15.3628 9.4676 15.9638C9.29545 16.021 9.15199 15.7921 8.97984 15.277C8.92246 14.9622 8.779 14.676 8.63554 14.3898ZM18.1324 29.8437L3.47106 30.3016C3.21284 29.8723 2.98331 29.4144 2.83985 28.8993C2.55293 27.9549 3.09807 25.694 4.33181 25.0072C5.22125 24.7496 6.25414 25.3792 7.4018 26.1519C8.0904 26.6098 8.63554 26.8674 9.32414 26.5812C10.9022 25.9516 13.6566 25.1217 15.3207 26.3236C16.4683 27.1249 16.8126 29.071 18.1324 29.8437ZM15.8084 22.1454C15.292 23.1184 14.7182 23.9197 14.3739 24.8927C12.7097 24.721 11.5621 24.8355 9.55367 26.0947C10.0988 25.2934 10.3283 25.093 11.1891 24.4921C9.89797 24.8069 8.97984 25.6654 8.57816 26.1805C7.63134 25.694 7.05751 24.9499 5.82377 24.4634C6.45498 24.0342 6.91405 23.748 7.80349 23.519C7.66003 23.4618 7.60265 23.4332 7.51657 23.4046C7.71741 22.918 8.4347 21.7447 10.0127 20.8289C10.0127 20.8289 10.3857 19.026 10.6153 18.425C11.3899 19.4552 12.5663 20.0848 13.4844 20.0562C14.3165 20.0276 15.3781 19.5983 15.9806 18.9115C15.8658 20.0562 15.8084 20.5714 15.8084 22.1454ZM16.7266 14.7046C16.6979 15.2197 16.6405 15.5632 16.5257 16.021C16.2388 17.1372 15.7797 18.1674 14.7755 18.8256C14.0869 19.398 12.9967 19.5983 12.1646 19.1691C10.9309 18.5967 10.0988 16.9368 9.75451 15.7349C9.55367 15.0194 9.41021 14.1609 9.35283 13.4168C9.32414 13.102 9.32414 12.8444 9.35283 12.5582C9.4676 12.5869 9.61106 12.5869 9.72582 12.5869C10.0701 12.5869 10.3857 12.6155 10.73 12.6155C10.9882 12.6155 11.3899 12.6155 11.4473 12.6155C12.4228 12.5869 13.7139 12.4438 16.124 11.9859C16.2675 11.9573 16.411 11.9 16.5544 11.8428C16.6405 11.9859 16.6692 12.1862 16.6979 12.3865C16.7266 12.8158 16.7266 12.8158 16.7266 13.2451C16.7266 13.6743 16.7553 14.1895 16.7266 14.7046Z" fill="#7A130C"/>
<path d="M15.292 26.3225C13.6566 25.1206 10.9022 25.9791 9.32414 26.5801C8.63554 26.8663 8.0904 26.6087 7.4018 26.1508C6.25414 25.3781 5.24994 24.7485 4.33181 25.0061C3.09807 25.7216 2.55293 27.9538 2.83985 28.8982C2.98331 29.4133 3.21284 29.8712 3.47106 30.3005L18.1324 29.8426C16.8126 29.0699 16.4396 27.1239 15.292 26.3225ZM19.7392 22.0012C18.3907 21.2285 17.243 21.5433 16.8126 21.6578C16.6118 22.0584 15.6076 24.1189 15.3781 25.092C16.3536 25.6643 17.243 26.8377 17.7308 28.011C17.7308 28.011 17.7308 28.011 17.7308 27.9824C18.1611 29.213 18.8784 29.4133 18.9645 28.9268C18.6489 28.3544 18.1898 27.4387 17.9316 27.0666C17.9603 26.9521 17.9603 26.8663 17.989 26.7232C18.9358 27.4959 19.5383 28.6692 20.2843 29.7854L22.3501 29.7281V24.5482C21.4033 23.3176 20.6286 22.5449 19.7392 22.0012ZM3.95882 24.4337C4.13097 24.3765 4.50396 24.2334 4.79087 24.2334C5.19255 23.8328 5.76639 23.4893 6.7419 23.1173C7.11489 22.4305 7.63134 21.5147 8.63554 20.4844C6.3976 20.3413 5.07779 20.9709 3.49975 22.4018C3.15545 22.7166 2.69639 23.2318 1.80695 23.7183C1.14705 24.0903 0.573216 24.4337 0.0280762 24.8058V30.3863L2.46686 30.3005C2.20863 29.6995 2.03648 29.1558 2.00779 28.841C2.03648 27.1239 2.29471 25.836 3.95882 24.4337Z" fill="white"/>
</g>
<defs>
<clipPath id="clip0_1537_5778">
<rect width="22" height="32" fill="white"/>
</clipPath>
</defs>
</svg>
