<svg width="147" height="24" viewBox="0 0 147 24" fill="none" xmlns="http://www.w3.org/2000/svg">
<g clip-path="url(#clip0_611_3720)">
<path d="M10.2091 0C4.84675 0 0.5 4.29792 0.5 9.6C0.5 12.2501 1.58596 14.6496 3.34233 16.3867C5.09918 18.1248 9.23815 20.64 9.48088 23.28C9.51727 23.6758 9.80711 24 10.2091 24C10.611 24 10.9008 23.6758 10.9372 23.28C11.18 20.64 15.3189 18.1248 17.0758 16.3867C18.8322 14.6496 19.9181 12.2501 19.9181 9.6C19.9181 4.29792 15.5714 0 10.2091 0Z" fill="url(#paint0_linear_611_3720)"/>
<path d="M10.2087 12.9605C12.0855 12.9605 13.6069 11.4561 13.6069 9.60046C13.6069 7.74478 12.0855 6.24046 10.2087 6.24046C8.33196 6.24046 6.81055 7.74478 6.81055 9.60046C6.81055 11.4561 8.33196 12.9605 10.2087 12.9605Z" fill="white"/>
<path d="M36.8529 17.7619H39.417V3.2H35.6875C31.9367 3.2 29.966 5.10666 29.966 7.91429C29.966 10.1562 31.0467 11.4762 32.975 12.8381L29.627 17.7619H32.4029L36.1324 12.2514L34.8397 11.3924C33.2717 10.3448 32.5088 9.52762 32.5088 7.76762C32.5088 6.21714 33.6107 5.16953 35.7086 5.16953H36.8529V17.7619ZM70.5244 17.0495V15.0172C69.7404 15.541 68.4265 16.0019 67.1975 16.0019C65.354 16.0019 64.6547 15.1429 64.5487 13.3829H70.6304V12.0629C70.6304 8.39619 68.9988 7.01333 66.4771 7.01333C63.4044 7.01333 61.9423 9.33905 61.9423 12.5238C61.9423 16.1905 63.7647 17.9714 66.9856 17.9714C68.5961 17.9714 69.7828 17.5524 70.5244 17.0495ZM86.2901 17.9714C87.4556 17.9714 88.2821 17.7619 88.8965 17.3219V15.2896C88.2608 15.7295 87.4979 16.0019 86.4384 16.0019C84.6373 16.0019 83.8956 14.619 83.8956 12.44C83.8956 10.1562 84.8068 8.98286 86.4597 8.98286C87.4343 8.98286 88.388 9.3181 88.8965 9.63238V7.51619C88.3668 7.22286 87.4343 7.01333 86.1842 7.01333C82.9632 7.01333 81.2891 9.29715 81.2891 12.5029C81.2891 16.0229 82.9208 17.9714 86.2901 17.9714ZM47.4269 7.22287V11.3924H44.0577V7.22287H41.536V17.7619H44.0577V13.3619H47.4269V17.7619H49.9485V7.22287H47.4269ZM61.3278 15.7924H60.2047V7.22287H52.8516V8.12381C52.8516 10.701 52.6821 14.0324 51.7921 15.7924H51.0081V20.1714H53.339V17.7619H58.9969V20.1714H61.3278V15.7924ZM78.5768 17.7619H81.4375L77.3901 12.0838L80.9501 7.22287H78.4072L74.8473 12.0838V7.22287H72.3256V17.7619H74.8473V12.5867L78.5768 17.7619ZM66.4347 8.98286C67.6849 8.98286 68.0663 10.0095 68.0663 11.3295V11.539H64.5487C64.6123 9.86286 65.2268 8.98286 66.4347 8.98286ZM57.6831 15.7924H54.123C54.8223 14.2 55.0131 11.3295 55.0131 9.50667V9.19239H57.6831V15.7924Z" fill="white"/>
<path d="M101.909 17.7619H104.897L99.6421 10.0933L104.558 3.2H102.015L97.2476 9.90477V3.2H94.6836V17.7619H97.2476V10.9314L101.909 17.7619Z" fill="white"/>
<path d="M113.4 10.5752C113.4 8.01905 112.086 7.05524 109.416 7.05524C107.742 7.05524 106.428 7.57905 105.665 8.01905V10.0933C106.343 9.59048 107.827 9.04571 109.119 9.04571C110.327 9.04571 110.878 9.46476 110.878 10.5962V11.1829H110.475C106.619 11.1829 104.902 12.44 104.902 14.5771C104.902 16.7143 106.216 17.9086 108.166 17.9086C109.649 17.9086 110.285 17.4266 110.772 16.9238H110.878C110.899 17.1962 110.984 17.5524 111.069 17.7619H113.527C113.442 16.9028 113.4 16.0438 113.4 15.1848V10.5752ZM110.878 15.2477C110.56 15.7086 109.967 16.0858 109.077 16.0858C108.017 16.0858 107.488 15.4572 107.488 14.5142C107.488 13.2781 108.356 12.8381 110.518 12.8381H110.878V15.2477Z" fill="white"/>
<path d="M117.683 7.22287H115.353V20.8H117.874V16.5257C118.51 17.4686 119.442 17.9714 120.523 17.9714C122.981 17.9714 124.676 16.0229 124.676 12.4819C124.676 8.96191 123.023 7.01334 120.65 7.01334C119.463 7.01334 118.489 7.5581 117.811 8.58477L117.683 7.22287ZM119.887 16.0019C118.552 16.0019 117.874 14.9334 117.874 12.5029C117.874 10.0514 118.595 8.98286 120.014 8.98286C121.392 8.98286 122.07 10.0514 122.07 12.4819C122.07 14.9334 121.349 16.0019 119.887 16.0019Z" fill="white"/>
<path d="M133.465 9.19239V7.22287H125.01V9.19239H127.976V17.7619H130.498V9.19239H133.465Z" fill="white"/>
<path d="M134.883 7.22287V17.7619H138.719C141.199 17.7619 142.957 16.5048 142.957 14.0324C142.957 11.6857 141.389 10.4495 138.762 10.4495H137.405V7.22287H134.883ZM143.889 7.22287V17.7619H146.411V7.22287H143.889ZM138.57 15.7924H137.405V12.419H138.634C139.714 12.419 140.35 12.901 140.35 14.1162C140.35 15.3314 139.651 15.7924 138.57 15.7924Z" fill="white"/>
</g>
<defs>
<linearGradient id="paint0_linear_611_3720" x1="10.2091" y1="0" x2="10.2091" y2="24" gradientUnits="userSpaceOnUse">
<stop stop-color="#FC463C"/>
<stop offset="1" stop-color="#FC463C"/>
</linearGradient>
<clipPath id="clip0_611_3720">
<rect width="146" height="24" fill="white" transform="translate(0.5)"/>
</clipPath>
</defs>
</svg>
