<svg width="142" height="47" viewBox="0 0 142 47" fill="none" xmlns="http://www.w3.org/2000/svg">
<path d="M132.11 33.9939C134.744 33.9939 136.61 33.5189 138 32.4957V27.8551C136.573 28.8417 134.854 29.4628 132.44 29.4628C128.379 29.4628 126.696 26.3203 126.696 21.3508C126.696 16.1255 128.745 13.458 132.476 13.458C134.671 13.458 136.829 14.2253 137.963 14.9562V10.1328C136.756 9.47503 134.671 9 131.818 9C124.538 9 120.77 14.2253 120.77 21.5335C120.807 29.5359 124.502 33.9939 132.11 33.9939ZM96.5169 31.8745V27.2339C94.761 28.4397 91.7614 29.4994 89.0178 29.4994C84.8475 29.4994 83.2745 27.5262 83.0185 23.5067H96.773V20.5104C96.773 12.1425 93.0783 9 87.4082 9C80.4578 9 77.1655 14.2984 77.1655 21.57C77.1655 29.9379 81.2991 33.9939 88.5422 33.9939C92.1638 33.9939 94.8342 33.0073 96.5169 31.8745ZM44.3156 9.43849V18.9391H36.7067V9.43849H31V33.5189H36.7067V23.4702H44.3156V33.5189H50.0222V9.43849H44.3156ZM75.7388 28.9878H73.2147V9.43849H56.6068V11.4848C56.6068 17.3678 56.241 24.9683 54.2291 28.9878H52.4V39H57.6677V33.5189H70.4345V39H75.7022V28.9878H75.7388ZM114.698 33.5189H121.173L112.027 20.5469L120.075 9.43849H114.332L106.284 20.5469V9.43849H100.577V33.5189H106.284V21.6797L114.698 33.5189ZM87.2619 13.458C90.0786 13.458 90.9566 15.7966 90.9566 18.8295V19.3045H83.0185C83.1648 15.4677 84.5549 13.458 87.2619 13.458ZM67.508 28.9878H59.4602C61.0332 25.3703 61.4721 18.7929 61.4721 14.6273V13.8965H67.508V28.9878Z" fill="black"/>
<path d="M26 34H20.2182V4.5956H17.6364C12.9091 4.5956 10.4364 7.02418 10.4364 10.6484C10.4364 14.7582 12.1455 16.6637 15.6727 19.0923L18.5818 21.1099L10.2182 34H4L11.5273 22.4923C7.2 19.3165 4.76364 16.2154 4.76364 10.9846C4.76364 4.44615 9.2 0 17.6 0H25.9636V34H26Z" fill="#FC3F1D"/>
</svg>
